<?xml version="1.0" encoding="UTF-8"?>
<svg width="906px" height="514px" viewBox="0 0 906 514" version="1.1" xmlns="http://www.w3.org/2000/svg" xmlns:xlink="http://www.w3.org/1999/xlink">
    <title>Artboard</title>
    <defs>
        <ellipse id="path-1" cx="342.123567" cy="82.2424242" rx="78" ry="72.2424242"></ellipse>
        <filter x="-4.5%" y="-3.5%" width="109.0%" height="109.7%" filterUnits="objectBoundingBox" id="filter-2">
            <feOffset dx="0" dy="2" in="SourceAlpha" result="shadowOffsetOuter1"></feOffset>
            <feGaussianBlur stdDeviation="2" in="shadowOffsetOuter1" result="shadowBlurOuter1"></feGaussianBlur>
            <feComposite in="shadowBlurOuter1" in2="SourceAlpha" operator="out" result="shadowBlurOuter1"></feComposite>
            <feColorMatrix values="0 0 0 0 0   0 0 0 0 0   0 0 0 0 0  0 0 0 0.5 0" type="matrix" in="shadowBlurOuter1"></feColorMatrix>
        </filter>
        <ellipse id="path-3" cx="569.991083" cy="82.2424242" rx="78" ry="72.2424242"></ellipse>
        <filter x="-4.5%" y="-3.5%" width="109.0%" height="109.7%" filterUnits="objectBoundingBox" id="filter-4">
            <feOffset dx="0" dy="2" in="SourceAlpha" result="shadowOffsetOuter1"></feOffset>
            <feGaussianBlur stdDeviation="2" in="shadowOffsetOuter1" result="shadowBlurOuter1"></feGaussianBlur>
            <feComposite in="shadowBlurOuter1" in2="SourceAlpha" operator="out" result="shadowBlurOuter1"></feComposite>
            <feColorMatrix values="0 0 0 0 0   0 0 0 0 0   0 0 0 0 0  0 0 0 0.5 0" type="matrix" in="shadowBlurOuter1"></feColorMatrix>
        </filter>
        <ellipse id="path-5" cx="786.429299" cy="82.2424242" rx="78" ry="72.2424242"></ellipse>
        <filter x="-4.5%" y="-3.5%" width="109.0%" height="109.7%" filterUnits="objectBoundingBox" id="filter-6">
            <feOffset dx="0" dy="2" in="SourceAlpha" result="shadowOffsetOuter1"></feOffset>
            <feGaussianBlur stdDeviation="2" in="shadowOffsetOuter1" result="shadowBlurOuter1"></feGaussianBlur>
            <feComposite in="shadowBlurOuter1" in2="SourceAlpha" operator="out" result="shadowBlurOuter1"></feComposite>
            <feColorMatrix values="0 0 0 0 0   0 0 0 0 0   0 0 0 0 0  0 0 0 0.5 0" type="matrix" in="shadowBlurOuter1"></feColorMatrix>
        </filter>
        <rect id="path-7" x="483" y="303" width="163" height="163"></rect>
        <filter x="-4.3%" y="-3.1%" width="108.6%" height="108.6%" filterUnits="objectBoundingBox" id="filter-8">
            <feOffset dx="0" dy="2" in="SourceAlpha" result="shadowOffsetOuter1"></feOffset>
            <feGaussianBlur stdDeviation="2" in="shadowOffsetOuter1" result="shadowBlurOuter1"></feGaussianBlur>
            <feComposite in="shadowBlurOuter1" in2="SourceAlpha" operator="out" result="shadowBlurOuter1"></feComposite>
            <feColorMatrix values="0 0 0 0 0   0 0 0 0 0   0 0 0 0 0  0 0 0 0.5 0" type="matrix" in="shadowBlurOuter1"></feColorMatrix>
        </filter>
    </defs>
    <g id="Artboard" stroke="none" stroke-width="1" fill="none" fill-rule="evenodd">
        <g id="Oval">
            <use fill="black" fill-opacity="1" filter="url(#filter-2)" xlink:href="#path-1"></use>
            <ellipse stroke="#979797" stroke-width="1" stroke-linejoin="square" fill="#147894" fill-rule="evenodd" cx="342.123567" cy="82.2424242" rx="77.5" ry="71.7424242"></ellipse>
        </g>
        <g id="Oval">
            <use fill="black" fill-opacity="1" filter="url(#filter-4)" xlink:href="#path-3"></use>
            <ellipse stroke="#979797" stroke-width="1" stroke-linejoin="square" fill="#147894" fill-rule="evenodd" cx="569.991083" cy="82.2424242" rx="77.5" ry="71.7424242"></ellipse>
        </g>
        <g id="Oval">
            <use fill="black" fill-opacity="1" filter="url(#filter-6)" xlink:href="#path-5"></use>
            <ellipse stroke="#979797" stroke-width="1" stroke-linejoin="square" fill="#147894" fill-rule="evenodd" cx="786.429299" cy="82.2424242" rx="77.5" ry="71.7424242"></ellipse>
        </g>
        <path id="Line" d="M572.704462,207.991336 L575.319188,209.462119 L574.583796,210.769483 L565.583796,226.769483 L564.276433,229.093684 L562.96907,226.769483 L553.96907,210.769483 L553.233678,209.462119 L555.848405,207.991336 L556.583796,209.298699 L562.776,220.307 L562.776433,218.223485 L565.776433,218.223485 L565.776,220.307 L571.96907,209.298699 L572.704462,207.991336 Z M565.776433,208.223485 L565.776433,216.223485 L562.776433,216.223485 L562.776433,208.223485 L565.776433,208.223485 Z M565.776433,198.223485 L565.776433,206.223485 L562.776433,206.223485 L562.776433,198.223485 L565.776433,198.223485 Z M565.776433,188.223485 L565.776433,196.223485 L562.776433,196.223485 L562.776433,188.223485 L565.776433,188.223485 Z M565.776433,178.223485 L565.776433,186.223485 L562.776433,186.223485 L562.776433,178.223485 L565.776433,178.223485 Z M565.776433,168.223485 L565.776433,176.223485 L562.776433,176.223485 L562.776433,168.223485 L565.776433,168.223485 Z" fill="#000000" fill-rule="nonzero"></path>
        <path id="Line-3" d="M452.496973,288.402362 L452.767861,289.877699 L456.08309,307.933426 L456.564669,310.556247 L454.073129,309.605805 L436.921158,303.062879 L435.519667,302.528255 L436.588914,299.725273 L437.990405,300.259897 L449.792,304.762 L449.021157,303.835239 L448.061757,302.682177 L450.36788,300.763377 L451.32728,301.916439 L452.098,302.842 L449.817187,290.419476 L449.546299,288.944138 L452.496973,288.402362 Z M443.97188,293.076298 L444.93128,294.22936 L445.601875,295.035319 L448.12928,298.072899 L449.08868,299.225961 L446.782557,301.144761 L445.823157,299.991699 L443.295751,296.954119 L442.625157,296.14816 L441.665757,294.995098 L443.97188,293.076298 Z M437.57588,285.389219 L438.53528,286.542281 L441.73328,290.38582 L442.69268,291.538882 L440.386556,293.457682 L439.427156,292.30462 L436.229156,288.461081 L435.269756,287.308019 L437.57588,285.389219 Z M431.17988,277.70214 L432.13928,278.855202 L435.33728,282.698741 L436.29668,283.851803 L433.990556,285.770603 L433.031156,284.617541 L429.833156,280.774002 L428.873756,279.62094 L431.17988,277.70214 Z M424.78388,270.015061 L425.74328,271.168123 L428.94128,275.011662 L429.90068,276.164724 L427.594556,278.083524 L426.635156,276.930462 L423.437156,273.086923 L422.477756,271.933861 L424.78388,270.015061 Z M418.38788,262.327982 L419.34728,263.481044 L422.54528,267.324583 L423.50468,268.477645 L421.198556,270.396445 L420.239156,269.243383 L417.041156,265.399844 L416.081756,264.246782 L418.38788,262.327982 Z M411.99188,254.640903 L412.95128,255.793965 L416.14928,259.637504 L417.10868,260.790566 L414.802556,262.709366 L413.843156,261.556305 L410.645156,257.712765 L409.685756,256.559703 L411.99188,254.640903 Z M405.595879,246.953824 L406.555279,248.106886 L409.75328,251.950426 L410.71268,253.103487 L408.406556,255.022287 L407.447156,253.869226 L404.249156,250.025686 L403.289756,248.872624 L405.595879,246.953824 Z M399.199879,239.266745 L400.159279,240.419807 L403.357279,244.263347 L404.316679,245.416408 L402.010556,247.335209 L401.051156,246.182147 L397.853156,242.338607 L396.893756,241.185545 L399.199879,239.266745 Z M392.803879,231.579666 L393.763279,232.732728 L396.961279,236.576268 L397.920679,237.72933 L395.614556,239.64813 L394.655156,238.495068 L391.457156,234.651528 L390.497756,233.498466 L392.803879,231.579666 Z M386.407879,223.892587 L387.367279,225.045649 L390.565279,228.889189 L391.524679,230.042251 L389.218556,231.961051 L388.259156,230.807989 L385.061155,226.964449 L384.101755,225.811388 L386.407879,223.892587 Z M380.011879,216.205509 L380.971279,217.35857 L384.169279,221.20211 L385.128679,222.355172 L382.822555,224.273972 L381.863155,223.12091 L378.665155,219.27737 L377.705755,218.124309 L380.011879,216.205509 Z M373.615879,208.51843 L374.575279,209.671491 L377.773279,213.515031 L378.732679,214.668093 L376.426555,216.586893 L375.467155,215.433831 L372.269155,211.590291 L371.309755,210.43723 L373.615879,208.51843 Z M367.219879,200.831351 L368.179279,201.984413 L371.377279,205.827952 L372.336679,206.981014 L370.030555,208.899814 L369.071155,207.746752 L365.873155,203.903213 L364.913755,202.750151 L367.219879,200.831351 Z M360.823879,193.144272 L361.783279,194.297334 L364.981279,198.140873 L365.940679,199.293935 L363.634555,201.212735 L362.675155,200.059673 L359.477155,196.216134 L358.517755,195.063072 L360.823879,193.144272 Z M354.427879,185.457193 L355.387279,186.610255 L358.585279,190.453794 L359.544679,191.606856 L357.238555,193.525656 L356.279155,192.372594 L353.081155,188.529055 L352.121755,187.375993 L354.427879,185.457193 Z M348.031878,177.770114 L348.991278,178.923176 L352.189278,182.766715 L353.148678,183.919777 L350.842555,185.838577 L349.883155,184.685515 L346.685155,180.841976 L345.725755,179.688914 L348.031878,177.770114 Z" fill="#000000" fill-rule="nonzero"></path>
        <path id="Line-4" d="M676.055893,288.402362 L679.006568,288.944138 L678.73568,290.419476 L676.454,302.842 L677.225586,301.916439 L678.184986,300.763377 L680.49111,302.682177 L679.53171,303.835239 L678.76,304.762 L690.562461,300.259897 L691.963952,299.725273 L693.0332,302.528255 L691.631708,303.062879 L674.479737,309.605805 L671.988197,310.556247 L672.469776,307.933426 L675.785005,289.877699 L676.055893,288.402362 Z M684.580986,293.076298 L686.88711,294.995098 L685.92771,296.14816 L685.257115,296.954119 L682.72971,299.991699 L681.77031,301.144761 L679.464186,299.225961 L680.423586,298.072899 L682.950991,295.035319 L683.621586,294.22936 L684.580986,293.076298 Z M690.976986,285.389219 L693.28311,287.308019 L692.32371,288.461081 L689.12571,292.30462 L688.16631,293.457682 L685.860186,291.538882 L686.819586,290.38582 L690.017586,286.542281 L690.976986,285.389219 Z M697.372986,277.70214 L699.67911,279.62094 L698.71971,280.774002 L695.52171,284.617541 L694.56231,285.770603 L692.256186,283.851803 L693.215586,282.698741 L696.413586,278.855202 L697.372986,277.70214 Z M703.768986,270.015061 L706.07511,271.933861 L705.11571,273.086923 L701.91771,276.930462 L700.95831,278.083524 L698.652186,276.164724 L699.611586,275.011662 L702.809586,271.168123 L703.768986,270.015061 Z M710.164987,262.327982 L712.47111,264.246782 L711.51171,265.399844 L708.31371,269.243383 L707.35431,270.396445 L705.048186,268.477645 L706.007586,267.324583 L709.205587,263.481044 L710.164987,262.327982 Z M716.560987,254.640903 L718.86711,256.559703 L717.90771,257.712765 L714.70971,261.556305 L713.75031,262.709366 L711.444187,260.790566 L712.403587,259.637504 L715.601587,255.793965 L716.560987,254.640903 Z M722.956987,246.953824 L725.26311,248.872624 L724.30371,250.025686 L721.10571,253.869226 L720.14631,255.022287 L717.840187,253.103487 L718.799587,251.950426 L721.997587,248.106886 L722.956987,246.953824 Z M729.352987,239.266745 L731.659111,241.185545 L730.699711,242.338607 L727.501711,246.182147 L726.54231,247.335209 L724.236187,245.416408 L725.195587,244.263347 L728.393587,240.419807 L729.352987,239.266745 Z M735.748987,231.579666 L738.055111,233.498466 L737.095711,234.651528 L733.897711,238.495068 L732.938311,239.64813 L730.632187,237.72933 L731.591587,236.576268 L734.789587,232.732728 L735.748987,231.579666 Z M742.144987,223.892587 L744.451111,225.811388 L743.491711,226.964449 L740.293711,230.807989 L739.334311,231.961051 L737.028187,230.042251 L737.987587,228.889189 L741.185587,225.045649 L742.144987,223.892587 Z M748.540987,216.205509 L750.847111,218.124309 L749.887711,219.27737 L746.689711,223.12091 L745.730311,224.273972 L743.424187,222.355172 L744.383587,221.20211 L747.581587,217.35857 L748.540987,216.205509 Z M754.936987,208.51843 L757.243111,210.43723 L756.283711,211.590291 L753.085711,215.433831 L752.126311,216.586893 L749.820187,214.668093 L750.779587,213.515031 L753.977587,209.671491 L754.936987,208.51843 Z M761.332987,200.831351 L763.639111,202.750151 L762.679711,203.903213 L759.481711,207.746752 L758.522311,208.899814 L756.216187,206.981014 L757.175587,205.827952 L760.373587,201.984413 L761.332987,200.831351 Z M767.728988,193.144272 L770.035111,195.063072 L769.075711,196.216134 L765.877711,200.059673 L764.918311,201.212735 L762.612188,199.293935 L763.571588,198.140873 L766.769588,194.297334 L767.728988,193.144272 Z M774.124988,185.457193 L776.431111,187.375993 L775.471711,188.529055 L772.273711,192.372594 L771.314311,193.525656 L769.008188,191.606856 L769.967588,190.453794 L773.165588,186.610255 L774.124988,185.457193 Z M780.520988,177.770114 L782.827112,179.688914 L781.867712,180.841976 L778.669711,184.685515 L777.710311,185.838577 L775.404188,183.919777 L776.363588,182.766715 L779.561588,178.923176 L780.520988,177.770114 Z" fill="#000000" fill-rule="nonzero"></path>
        <text id="User-HTTP-Request" font-family="Montserrat-SemiBold, Montserrat" font-size="26" font-weight="500" fill="#171515">
            <tspan x="25.164" y="90">User HTTP </tspan>
            <tspan x="39.347" y="122">Request </tspan>
        </text>
        <path id="Line-5" d="M466.80892,70.6352751 L468.116284,71.370667 L484.116284,80.370667 L486.440485,81.6780303 L484.116284,82.9853936 L468.116284,91.9853936 L466.80892,92.7207855 L465.338137,90.1060589 L466.6455,89.370667 L477.654,83.178 L424.055414,83.1780303 L424.055414,80.1780303 L477.654,80.178 L466.6455,73.9853936 L465.338137,73.2500017 L466.80892,70.6352751 Z" fill="#000000" fill-rule="nonzero"></path>
        <path id="Line-6" d="M236.541878,71.8811881 L237.860629,72.5959577 L253.999997,81.3435746 L256.344443,82.6142761 L254.04106,83.9579788 L238.184374,93.208142 L236.888721,93.9639748 L235.377056,91.3726687 L236.672709,90.6168359 L247.582,84.252 L237.33986,84.4129568 L180.441391,85.3066332 L178.941576,85.3301901 L178.894463,82.33056 L180.394278,82.3070032 L237.292746,81.4133268 L247.535,81.252 L236.431089,75.2334599 L235.112338,74.5186903 L236.541878,71.8811881 Z" fill="#000000" fill-rule="nonzero"></path>
        <path id="Line-7" d="M682.411468,70.6352751 L683.718831,71.370667 L699.718831,80.370667 L702.043033,81.6780303 L699.718831,82.9853936 L683.718831,91.9853936 L682.411468,92.7207855 L680.940684,90.1060589 L682.248048,89.370667 L693.257,83.178 L648.850318,83.1780303 L648.850318,80.1780303 L693.257,80.178 L682.248048,73.9853936 L680.940684,73.2500017 L682.411468,70.6352751 Z" fill="#000000" fill-rule="nonzero"></path>
        <g id="Rectangle" transform="translate(564.500000, 384.500000) rotate(45.000000) translate(-564.500000, -384.500000) ">
            <use fill="black" fill-opacity="1" filter="url(#filter-8)" xlink:href="#path-7"></use>
            <rect stroke="#979797" stroke-width="1" stroke-linejoin="square" fill="#F9B928" fill-rule="evenodd" x="483.5" y="303.5" width="162" height="162"></rect>
        </g>
        <text id="Service-C" font-family="Montserrat-SemiBold, Montserrat" font-size="20" font-weight="500" fill="#FFFFFF">
            <tspan x="733.649682" y="90.0530303">Service C</tspan>
        </text>
        <text id="Service-A" font-family="Montserrat-SemiBold, Montserrat" font-size="20" font-weight="500" fill="#FFFFFF">
            <tspan x="290.280255" y="90.0530303">Service A</tspan>
        </text>
        <text id="Service-B" font-family="Montserrat-SemiBold, Montserrat" font-size="20" font-weight="500" fill="#FFFFFF">
            <tspan x="517.211465" y="90.0530303">Service B</tspan>
        </text>
        <text id="Auth-Service" font-family="Montserrat-SemiBold, Montserrat" font-size="26" font-weight="500" fill="#211F1F">
            <tspan x="531.399433" y="377.05303">Auth </tspan>
            <tspan x="515.552433" y="409.05303">Service</tspan>
        </text>
        <text id="Authenticated?" fill="#211F1F" fill-rule="nonzero" font-family="Montserrat-SemiBold, Montserrat" font-size="20" font-weight="500">
            <tspan x="197" y="251">Authenticated?</tspan>
        </text>
        <text id="Authenticated?" fill="#211F1F" fill-rule="nonzero" font-family="Montserrat-SemiBold, Montserrat" font-size="20" font-weight="500">
            <tspan x="391" y="199">Authenticated?</tspan>
        </text>
        <text id="Authenticated?" fill="#211F1F" fill-rule="nonzero" font-family="Montserrat-SemiBold, Montserrat" font-size="20" font-weight="500">
            <tspan x="734" y="263">Authenticated?</tspan>
        </text>
    </g>
</svg>