<?xml version="1.0" encoding="UTF-8"?>
<svg width="631px" height="437px" viewBox="0 0 631 437" version="1.1" xmlns="http://www.w3.org/2000/svg" xmlns:xlink="http://www.w3.org/1999/xlink">
    <title>Artboard</title>
    <defs>
        <ellipse id="path-1" cx="144" cy="308.5" rx="124" ry="114.5"></ellipse>
        <filter x="-2.8%" y="-2.2%" width="105.6%" height="106.1%" filterUnits="objectBoundingBox" id="filter-2">
            <feOffset dx="0" dy="2" in="SourceAlpha" result="shadowOffsetOuter1"></feOffset>
            <feGaussianBlur stdDeviation="2" in="shadowOffsetOuter1" result="shadowBlurOuter1"></feGaussianBlur>
            <feComposite in="shadowBlurOuter1" in2="SourceAlpha" operator="out" result="shadowBlurOuter1"></feComposite>
            <feColorMatrix values="0 0 0 0 0   0 0 0 0 0   0 0 0 0 0  0 0 0 0.5 0" type="matrix" in="shadowBlurOuter1"></feColorMatrix>
        </filter>
        <ellipse id="path-3" cx="472" cy="308.5" rx="124" ry="114.5"></ellipse>
        <filter x="-2.8%" y="-2.2%" width="105.6%" height="106.1%" filterUnits="objectBoundingBox" id="filter-4">
            <feOffset dx="0" dy="2" in="SourceAlpha" result="shadowOffsetOuter1"></feOffset>
            <feGaussianBlur stdDeviation="2" in="shadowOffsetOuter1" result="shadowBlurOuter1"></feGaussianBlur>
            <feComposite in="shadowBlurOuter1" in2="SourceAlpha" operator="out" result="shadowBlurOuter1"></feComposite>
            <feColorMatrix values="0 0 0 0 0   0 0 0 0 0   0 0 0 0 0  0 0 0 0.5 0" type="matrix" in="shadowBlurOuter1"></feColorMatrix>
        </filter>
    </defs>
    <g id="Artboard" stroke="none" stroke-width="1" fill="none" fill-rule="evenodd">
        <path id="Line" d="M152.776884,156.383331 L155.404523,157.830919 L154.680729,159.144738 L145.822669,175.223755 L144.535924,177.559434 L143.208045,175.246893 L134.06681,159.327162 L133.319878,158.026358 L135.921487,156.532494 L136.668419,157.833298 L143.084,169.008 L145.835,168.983 L152.05309,157.69715 L152.776884,156.383331 Z M145.871589,158.982869 L145.884862,160.482811 L145.929108,165.482615 L145.942382,166.982556 L142.9425,167.009104 L142.929226,165.509163 L142.88498,160.509358 L142.871706,159.009417 L145.871589,158.982869 Z M145.783096,148.983261 L145.79637,150.483202 L145.840616,155.483006 L145.85389,156.982948 L142.854008,157.009495 L142.840734,155.509554 L142.796488,150.50975 L142.783214,149.009809 L145.783096,148.983261 Z M145.694604,138.983653 L145.707878,140.483594 L145.752124,145.483398 L145.765398,146.983339 L142.765515,147.009887 L142.752242,145.509946 L142.707996,140.510141 L142.694722,139.0102 L145.694604,138.983653 Z M145.606112,128.984044 L145.619386,130.483985 L145.663632,135.48379 L145.676906,136.983731 L142.677023,137.010278 L142.66375,135.510337 L142.619504,130.510533 L142.60623,129.010592 L145.606112,128.984044 Z M145.51762,118.984436 L145.530894,120.484377 L145.57514,125.484181 L145.588414,126.984122 L142.588531,127.01067 L142.575257,125.510729 L142.531011,120.510925 L142.517738,119.010983 L145.51762,118.984436 Z M145.429128,108.984827 L145.442402,110.484768 L145.486648,115.484573 L145.499922,116.984514 L142.500039,117.011062 L142.486765,115.51112 L142.442519,110.511316 L142.429245,109.011375 L145.429128,108.984827 Z M145.340636,98.9852187 L145.35391,100.48516 L145.398156,105.484964 L145.41143,106.984905 L142.411547,107.011453 L142.398273,105.511512 L142.354027,100.511708 L142.340753,99.0117663 L145.340636,98.9852187 Z M145.252144,88.9856103 L145.265418,90.4855515 L145.309664,95.4853558 L145.322937,96.985297 L142.323055,97.0118447 L142.309781,95.5119034 L142.265535,90.5120992 L142.252261,89.0121579 L145.252144,88.9856103 Z M145.163652,78.9860018 L145.176925,80.4859431 L145.221172,85.4857473 L145.234445,86.9856886 L142.234563,87.0122362 L142.221289,85.5122949 L142.177043,80.5124907 L142.163769,79.0125494 L145.163652,78.9860018 Z M145.07516,68.9863934 L145.088433,70.4863346 L145.132679,75.4861389 L145.145953,76.9860801 L142.146071,77.0126278 L142.132797,75.5126865 L142.088551,70.5128823 L142.075277,69.012941 L145.07516,68.9863934 Z M144.986667,58.9867849 L144.999941,60.4867262 L145.044187,65.4865304 L145.057461,66.9864717 L142.057579,67.0130193 L142.044305,65.513078 L142.000059,60.5132738 L141.986785,59.0133325 L144.986667,58.9867849 Z" fill="#000000" fill-rule="nonzero"></path>
        <path id="Line-4" d="M464.1063,156.440312 L464.839058,157.749153 L471.009,168.77 L471.016346,165.379356 L474.01634,165.385396 L474.009,168.777 L480.224301,157.780127 L480.962323,156.474247 L483.574083,157.950292 L482.836061,159.256172 L473.803867,175.23802 L472.491827,177.559585 L471.189146,175.232756 L462.221376,159.214669 L461.488618,157.905828 L464.1063,156.440312 Z M471.036479,155.379377 L474.036473,155.385416 L474.033453,156.885413 L474.030188,158.506995 L474.023386,161.885403 L474.020366,163.3854 L471.020373,163.37936 L471.023392,161.879363 L471.030194,158.500955 L471.033459,156.879373 L471.036479,155.379377 Z M471.056611,145.379397 L474.056605,145.385437 L474.040499,153.38542 L471.040505,153.379381 L471.056611,145.379397 Z M471.076744,135.379417 L474.076738,135.385457 L474.060632,143.385441 L471.060638,143.379401 L471.076744,135.379417 Z M471.096877,125.379437 L474.096871,125.385477 L474.080764,133.385461 L471.080771,133.379421 L471.096877,125.379437 Z M471.117009,115.379458 L474.117003,115.385497 L474.113983,116.885494 L474.100897,123.385481 L471.100903,123.379441 L471.113989,116.879455 L471.117009,115.379458 Z M471.137142,105.379478 L474.137136,105.385518 L474.12103,113.385501 L471.121036,113.379462 L471.137142,105.379478 Z M471.157275,95.3794981 L474.157269,95.3855379 L474.141162,103.385522 L471.141169,103.379482 L471.157275,95.3794981 Z M471.177407,85.3795184 L474.177401,85.3855582 L474.161295,93.385542 L471.161301,93.3795022 L471.177407,85.3795184 Z M471.19754,75.3795386 L474.197534,75.3855784 L474.181428,83.3855622 L471.181434,83.3795224 L471.19754,75.3795386 Z M471.217673,65.3795589 L474.217667,65.3855987 L474.20156,73.3855825 L471.201566,73.3795427 L471.217673,65.3795589 Z" fill="#000000" fill-rule="nonzero"></path>
        <g id="Oval">
            <use fill="black" fill-opacity="1" filter="url(#filter-2)" xlink:href="#path-1"></use>
            <ellipse stroke="#979797" stroke-width="1" stroke-linejoin="square" fill="#F9B928" fill-rule="evenodd" cx="144" cy="308.5" rx="123.5" ry="114"></ellipse>
        </g>
        <g id="Oval">
            <use fill="black" fill-opacity="1" filter="url(#filter-4)" xlink:href="#path-3"></use>
            <ellipse stroke="#979797" stroke-width="1" stroke-linejoin="square" fill="#F9B928" fill-rule="evenodd" cx="472" cy="308.5" rx="123.5" ry="114"></ellipse>
        </g>
        <text id="Auth-Service" font-family="Montserrat-SemiBold, Montserrat" font-size="28" font-weight="500" fill="#0B0A0A">
            <tspan x="36.6294013" y="315.05303">Username A-M</tspan>
        </text>
        <text id="Auth-Service" font-family="Montserrat-SemiBold, Montserrat" font-size="28" font-weight="500" fill="#0B0A0A">
            <tspan x="368.065401" y="315.05303">Username O-Z</tspan>
        </text>
    </g>
</svg>