<?xml version="1.0" encoding="UTF-8"?>
<svg width="906px" height="437px" viewBox="0 0 906 437" version="1.1" xmlns="http://www.w3.org/2000/svg" xmlns:xlink="http://www.w3.org/1999/xlink">
    <title>Artboard</title>
    <defs>
        <rect id="path-1" x="372" y="33" width="121" height="76"></rect>
        <filter x="-5.8%" y="-6.6%" width="111.6%" height="118.4%" filterUnits="objectBoundingBox" id="filter-2">
            <feOffset dx="0" dy="2" in="SourceAlpha" result="shadowOffsetOuter1"></feOffset>
            <feGaussianBlur stdDeviation="2" in="shadowOffsetOuter1" result="shadowBlurOuter1"></feGaussianBlur>
            <feComposite in="shadowBlurOuter1" in2="SourceAlpha" operator="out" result="shadowBlurOuter1"></feComposite>
            <feColorMatrix values="0 0 0 0 0   0 0 0 0 0   0 0 0 0 0  0 0 0 0.5 0" type="matrix" in="shadowBlurOuter1"></feColorMatrix>
        </filter>
        <path d="M329,33 L329,109 L208,109 L208,33 L329,33 Z M165,33 L165,109 L44,109 L44,33 L165,33 Z" id="path-3"></path>
        <filter x="-2.5%" y="-6.6%" width="104.9%" height="118.4%" filterUnits="objectBoundingBox" id="filter-4">
            <feOffset dx="0" dy="2" in="SourceAlpha" result="shadowOffsetOuter1"></feOffset>
            <feGaussianBlur stdDeviation="2" in="shadowOffsetOuter1" result="shadowBlurOuter1"></feGaussianBlur>
            <feComposite in="shadowBlurOuter1" in2="SourceAlpha" operator="out" result="shadowBlurOuter1"></feComposite>
            <feColorMatrix values="0 0 0 0 0   0 0 0 0 0   0 0 0 0 0  0 0 0 0.5 0" type="matrix" in="shadowBlurOuter1"></feColorMatrix>
        </filter>
        <rect id="path-5" x="578" y="33" width="299" height="76"></rect>
        <filter x="-2.3%" y="-6.6%" width="104.7%" height="118.4%" filterUnits="objectBoundingBox" id="filter-6">
            <feOffset dx="0" dy="2" in="SourceAlpha" result="shadowOffsetOuter1"></feOffset>
            <feGaussianBlur stdDeviation="2" in="shadowOffsetOuter1" result="shadowBlurOuter1"></feGaussianBlur>
            <feComposite in="shadowBlurOuter1" in2="SourceAlpha" operator="out" result="shadowBlurOuter1"></feComposite>
            <feColorMatrix values="0 0 0 0 0   0 0 0 0 0   0 0 0 0 0  0 0 0 0.5 0" type="matrix" in="shadowBlurOuter1"></feColorMatrix>
        </filter>
        <ellipse id="path-7" cx="453" cy="315.5" rx="116" ry="103.5"></ellipse>
        <filter x="-3.0%" y="-2.4%" width="106.0%" height="106.8%" filterUnits="objectBoundingBox" id="filter-8">
            <feOffset dx="0" dy="2" in="SourceAlpha" result="shadowOffsetOuter1"></feOffset>
            <feGaussianBlur stdDeviation="2" in="shadowOffsetOuter1" result="shadowBlurOuter1"></feGaussianBlur>
            <feComposite in="shadowBlurOuter1" in2="SourceAlpha" operator="out" result="shadowBlurOuter1"></feComposite>
            <feColorMatrix values="0 0 0 0 0   0 0 0 0 0   0 0 0 0 0  0 0 0 0.5 0" type="matrix" in="shadowBlurOuter1"></feColorMatrix>
        </filter>
    </defs>
    <g id="Artboard" stroke="none" stroke-width="1" fill="none" fill-rule="evenodd">
        <path id="Line" d="M440.928029,172.457245 L443.542755,173.928029 L442.807363,175.235392 L433.807363,191.235392 L432.5,193.559593 L431.192637,191.235392 L422.192637,175.235392 L421.457245,173.928029 L424.071971,172.457245 L424.807363,173.764608 L431,184.773 L431,183 L434,183 L434,184.773 L440.192637,173.764608 L440.928029,172.457245 Z M434,173 L434,181 L431,181 L431,173 L434,173 Z M434,163 L434,171 L431,171 L431,163 L434,163 Z M434,153 L434,161 L431,161 L431,153 L434,153 Z M434,143 L434,151 L431,151 L431,143 L434,143 Z M434,133 L434,141 L431,141 L431,133 L434,133 Z M434,123 L434,131 L431,131 L431,123 L434,123 Z" fill="#000000" fill-rule="nonzero"></path>
        <path id="Line-3" d="M296.441281,279.846434 L296.911267,281.270903 L302.66313,298.704092 L303.49866,301.236482 L300.9006,300.635487 L283.015335,296.498182 L281.553926,296.160122 L282.230046,293.237305 L283.691455,293.575365 L295.997,296.421 L293.767341,294.386692 L292.659351,293.375575 L294.681584,291.159595 L295.789575,292.170712 L298.02,294.206 L294.062328,282.210875 L293.592342,280.786405 L296.441281,279.846434 Z M287.294982,284.418815 L288.402972,285.429932 L290.485996,287.330833 L292.096273,288.800322 L293.204264,289.811439 L291.18203,292.02742 L290.07404,291.016303 L288.463762,289.546814 L286.380739,287.645913 L285.272748,286.634796 L287.294982,284.418815 Z M279.90838,277.678036 L281.01637,278.689153 L284.709671,282.059543 L285.817661,283.07066 L283.795428,285.28664 L282.687437,284.275523 L278.994136,280.905134 L277.886146,279.894017 L279.90838,277.678036 Z M272.521777,270.937257 L273.629767,271.948374 L277.323069,275.318763 L278.431059,276.32988 L276.408825,278.545861 L275.300835,277.534744 L271.607534,274.164355 L270.499543,273.153238 L272.521777,270.937257 Z M265.135175,264.196478 L266.243165,265.207595 L269.936466,268.577984 L271.044457,269.589101 L269.022223,271.805082 L267.914232,270.793965 L264.220931,267.423575 L263.112941,266.412458 L265.135175,264.196478 Z M257.748572,257.455698 L258.856563,258.466815 L262.549864,261.837205 L263.657854,262.848322 L261.63562,265.064303 L260.52763,264.053186 L256.834329,260.682796 L255.726339,259.671679 L257.748572,257.455698 Z M250.36197,250.714919 L251.46996,251.726036 L255.163261,255.096426 L256.271252,256.107543 L254.249018,258.323523 L253.141028,257.312406 L249.447726,253.942017 L248.339736,252.9309 L250.36197,250.714919 Z M242.975367,243.97414 L244.083358,244.985257 L247.776659,248.355646 L248.884649,249.366763 L246.862416,251.582744 L245.754425,250.571627 L242.061124,247.201238 L240.953134,246.190121 L242.975367,243.97414 Z M235.588765,237.233361 L236.696755,238.244478 L240.390057,241.614867 L241.498047,242.625984 L239.475813,244.841965 L238.367823,243.830848 L234.674522,240.460458 L233.566531,239.449341 L235.588765,237.233361 Z M228.202163,230.492581 L229.310153,231.503698 L233.003454,234.874088 L234.111445,235.885205 L232.089211,238.101186 L230.98122,237.090069 L227.287919,233.719679 L226.179929,232.708562 L228.202163,230.492581 Z M220.81556,223.751802 L221.923551,224.762919 L225.616852,228.133309 L226.724842,229.144426 L224.702608,231.360406 L223.594618,230.349289 L219.901317,226.9789 L218.793326,225.967783 L220.81556,223.751802 Z M213.428958,217.011023 L214.536948,218.02214 L218.230249,221.392529 L219.33824,222.403646 L217.316006,224.619627 L216.208016,223.60851 L212.514714,220.238121 L211.406724,219.227004 L213.428958,217.011023 Z M206.042355,210.270244 L207.150346,211.281361 L210.843647,214.65175 L211.951637,215.662867 L209.929404,217.878848 L208.821413,216.867731 L205.128112,213.497341 L204.020122,212.486224 L206.042355,210.270244 Z M198.655753,203.529464 L199.763743,204.540581 L203.457045,207.910971 L204.565035,208.922088 L202.542801,211.138069 L201.434811,210.126952 L197.74151,206.756562 L196.633519,205.745445 L198.655753,203.529464 Z M191.269151,196.788685 L192.377141,197.799802 L196.070442,201.170192 L197.178433,202.181309 L195.156199,204.397289 L194.048208,203.386172 L190.354907,200.015783 L189.246917,199.004666 L191.269151,196.788685 Z M183.882548,190.047906 L184.990539,191.059023 L188.68384,194.429412 L189.79183,195.440529 L187.769596,197.65651 L186.661606,196.645393 L182.968305,193.275004 L181.860314,192.263887 L183.882548,190.047906 Z M176.495946,183.307127 L177.603936,184.318244 L181.297237,187.688633 L182.405228,188.69975 L180.382994,190.915731 L179.275004,189.904614 L175.581702,186.534224 L174.473712,185.523107 L176.495946,183.307127 Z M169.109343,176.566347 L170.217334,177.577464 L173.910635,180.947854 L175.018625,181.958971 L172.996392,184.174952 L171.888401,183.163835 L168.1951,179.793445 L167.08711,178.782328 L169.109343,176.566347 Z M161.722741,169.825568 L162.830731,170.836685 L166.524033,174.207075 L167.632023,175.218192 L165.609789,177.434172 L164.501799,176.423055 L160.808498,173.052666 L159.700507,172.041549 L161.722741,169.825568 Z M154.336139,163.084789 L155.444129,164.095906 L159.13743,167.466295 L160.24542,168.477412 L158.223187,170.693393 L157.115196,169.682276 L153.421895,166.311887 L152.313905,165.30077 L154.336139,163.084789 Z M146.949536,156.34401 L148.057527,157.355127 L151.750828,160.725516 L152.858818,161.736633 L150.836584,163.952614 L149.728594,162.941497 L146.035293,159.571107 L144.927302,158.55999 L146.949536,156.34401 Z M139.562934,149.60323 L140.670924,150.614347 L144.364225,153.984737 L145.472216,154.995854 L143.449982,157.211835 L142.341992,156.200718 L138.64869,152.830328 L137.5407,151.819211 L139.562934,149.60323 Z M132.176331,142.862451 L133.284322,143.873568 L136.977623,147.243958 L138.085613,148.255075 L136.063379,150.471055 L134.955389,149.459938 L131.262088,146.089549 L130.154098,145.078432 L132.176331,142.862451 Z M124.789729,136.121672 L125.897719,137.132789 L129.59102,140.503179 L130.699011,141.514295 L128.676777,143.730276 L127.568787,142.719159 L123.875486,139.34877 L122.767495,138.337653 L124.789729,136.121672 Z M117.403127,129.380893 L118.511117,130.39201 L122.204418,133.762399 L123.312408,134.773516 L121.290175,136.989497 L120.182184,135.97838 L116.488883,132.60799 L115.380893,131.596873 L117.403127,129.380893 Z" fill="#000000" fill-rule="nonzero"></path>
        <path id="Line-2" d="M345.84647,210.421173 L346.053835,211.906771 L348.591641,230.088067 L348.960289,232.729129 L346.511804,231.672704 L329.656227,224.400186 L328.278955,223.805947 L329.467433,221.051401 L330.844705,221.64564 L343.73,227.205 L345.022,226.22 L343.08264,212.3215 L342.875275,210.835902 L345.84647,210.421173 Z M339.509269,217.849594 L340.418333,219.042742 L343.448549,223.0199 L344.357614,224.213048 L341.971319,226.031177 L341.062254,224.83803 L338.032038,220.860871 L337.122973,219.667724 L339.509269,217.849594 Z M333.448836,209.895277 L334.357901,211.088424 L337.388117,215.065583 L338.297182,216.258731 L335.910887,218.07686 L335.001822,216.883713 L331.971606,212.906554 L331.062541,211.713406 L333.448836,209.895277 Z M327.388404,201.94096 L328.297469,203.134107 L331.327685,207.111266 L332.23675,208.304413 L329.850455,210.122543 L328.94139,208.929395 L325.911174,204.952237 L325.002109,203.759089 L327.388404,201.94096 Z M321.327972,193.986642 L322.237037,195.17979 L325.267253,199.156949 L326.176318,200.350096 L323.790023,202.168226 L322.880958,200.975078 L319.850742,196.99792 L318.941677,195.804772 L321.327972,193.986642 Z M315.26754,186.032325 L316.176605,187.225473 L319.206821,191.202631 L320.115886,192.395779 L317.729591,194.213909 L316.820526,193.020761 L313.79031,189.043602 L312.881245,187.850455 L315.26754,186.032325 Z M309.207108,178.078008 L310.116173,179.271156 L313.146389,183.248314 L314.055454,184.441462 L311.669158,186.259591 L310.760094,185.066444 L307.729877,181.089285 L306.820813,179.896138 L309.207108,178.078008 Z M303.146676,170.123691 L304.05574,171.316838 L307.085957,175.293997 L307.995021,176.487145 L305.608726,178.305274 L304.699661,177.112127 L301.669445,173.134968 L300.760381,171.94182 L303.146676,170.123691 Z M297.086244,162.169374 L297.995308,163.362521 L301.025524,167.33968 L301.934589,168.532827 L299.548294,170.350957 L298.639229,169.157809 L295.609013,165.180651 L294.699948,163.987503 L297.086244,162.169374 Z M291.025811,154.215056 L291.934876,155.408204 L294.965092,159.385363 L295.874157,160.57851 L293.487862,162.39664 L292.578797,161.203492 L289.548581,157.226334 L288.639516,156.033186 L291.025811,154.215056 Z M284.965379,146.260739 L285.874444,147.453887 L288.90466,151.431045 L289.813725,152.624193 L287.42743,154.442323 L286.518365,153.249175 L283.488149,149.272016 L282.579084,148.078869 L284.965379,146.260739 Z M278.904947,138.306422 L279.814012,139.49957 L282.844228,143.476728 L283.753293,144.669876 L281.366998,146.488005 L280.457933,145.294858 L277.427717,141.317699 L276.518652,140.124552 L278.904947,138.306422 Z M272.844515,130.352105 L273.75358,131.545252 L276.783796,135.522411 L277.692861,136.715559 L275.306565,138.533688 L274.397501,137.340541 L271.367285,133.363382 L270.45822,132.170234 L272.844515,130.352105 Z M266.784083,122.397788 L267.693148,123.590935 L270.723364,127.568094 L271.632428,128.761241 L269.246133,130.579371 L268.337068,129.386223 L265.306852,125.409065 L264.397788,124.215917 L266.784083,122.397788 Z" fill="#000000" fill-rule="nonzero"></path>
        <path id="Line-4" d="M602.055893,233.402362 L605.006568,233.944138 L604.73568,235.419476 L602.454,247.842 L603.225586,246.916439 L604.184986,245.763377 L606.49111,247.682177 L605.53171,248.835239 L604.76,249.762 L616.562461,245.259897 L617.963952,244.725273 L619.0332,247.528255 L617.631708,248.062879 L600.479737,254.605805 L597.988197,255.556247 L598.469776,252.933426 L601.785005,234.877699 L602.055893,233.402362 Z M610.580986,238.076298 L612.88711,239.995098 L611.92771,241.14816 L611.257115,241.954119 L608.72971,244.991699 L607.77031,246.144761 L605.464186,244.225961 L606.423586,243.072899 L608.950991,240.035319 L609.621586,239.22936 L610.580986,238.076298 Z M616.976986,230.389219 L619.28311,232.308019 L618.32371,233.461081 L615.12571,237.30462 L614.16631,238.457682 L611.860186,236.538882 L612.819586,235.38582 L616.017586,231.542281 L616.976986,230.389219 Z M623.372986,222.70214 L625.67911,224.62094 L624.71971,225.774002 L621.52171,229.617541 L620.56231,230.770603 L618.256186,228.851803 L619.215586,227.698741 L622.413586,223.855202 L623.372986,222.70214 Z M629.768986,215.015061 L632.07511,216.933861 L631.11571,218.086923 L627.91771,221.930462 L626.95831,223.083524 L624.652186,221.164724 L625.611586,220.011662 L628.809586,216.168123 L629.768986,215.015061 Z M636.164987,207.327982 L638.47111,209.246782 L637.51171,210.399844 L634.31371,214.243383 L633.35431,215.396445 L631.048186,213.477645 L632.007586,212.324583 L635.205587,208.481044 L636.164987,207.327982 Z M642.560987,199.640903 L644.86711,201.559703 L643.90771,202.712765 L640.70971,206.556305 L639.75031,207.709366 L637.444187,205.790566 L638.403587,204.637504 L641.601587,200.793965 L642.560987,199.640903 Z M648.956987,191.953824 L651.26311,193.872624 L650.30371,195.025686 L647.10571,198.869226 L646.14631,200.022287 L643.840187,198.103487 L644.799587,196.950426 L647.997587,193.106886 L648.956987,191.953824 Z M655.352987,184.266745 L657.659111,186.185545 L656.699711,187.338607 L653.501711,191.182147 L652.54231,192.335209 L650.236187,190.416408 L651.195587,189.263347 L654.393587,185.419807 L655.352987,184.266745 Z M661.748987,176.579666 L664.055111,178.498466 L663.095711,179.651528 L659.897711,183.495068 L658.938311,184.64813 L656.632187,182.72933 L657.591587,181.576268 L660.789587,177.732728 L661.748987,176.579666 Z M668.144987,168.892587 L670.451111,170.811388 L669.491711,171.964449 L666.293711,175.807989 L665.334311,176.961051 L663.028187,175.042251 L663.987587,173.889189 L667.185587,170.045649 L668.144987,168.892587 Z M674.540987,161.205509 L676.847111,163.124309 L675.887711,164.27737 L672.689711,168.12091 L671.730311,169.273972 L669.424187,167.355172 L670.383587,166.20211 L673.581587,162.35857 L674.540987,161.205509 Z M680.936987,153.51843 L683.243111,155.43723 L682.283711,156.590291 L679.085711,160.433831 L678.126311,161.586893 L675.820187,159.668093 L676.779587,158.515031 L679.977587,154.671491 L680.936987,153.51843 Z M687.332987,145.831351 L689.639111,147.750151 L688.679711,148.903213 L685.481711,152.746752 L684.522311,153.899814 L682.216187,151.981014 L683.175587,150.827952 L686.373587,146.984413 L687.332987,145.831351 Z M693.728988,138.144272 L696.035111,140.063072 L695.075711,141.216134 L691.877711,145.059673 L690.918311,146.212735 L688.612188,144.293935 L689.571588,143.140873 L692.769588,139.297334 L693.728988,138.144272 Z M700.124988,130.457193 L702.431111,132.375993 L701.471711,133.529055 L698.273711,137.372594 L697.314311,138.525656 L695.008188,136.606856 L695.967588,135.453794 L699.165588,131.610255 L700.124988,130.457193 Z M706.520988,122.770114 L708.827112,124.688914 L707.867712,125.841976 L704.669711,129.685515 L703.710311,130.838577 L701.404188,128.919777 L702.363588,127.766715 L705.561588,123.923176 L706.520988,122.770114 Z" fill="#000000" fill-rule="nonzero"></path>
        <g id="Rectangle">
            <use fill="black" fill-opacity="1" filter="url(#filter-2)" xlink:href="#path-1"></use>
            <rect stroke="#979797" stroke-width="1" stroke-linejoin="square" fill="#147894" fill-rule="evenodd" x="372.5" y="33.5" width="120" height="75"></rect>
        </g>
        <g id="Rectangle-2">
            <use fill="black" fill-opacity="1" filter="url(#filter-4)" xlink:href="#path-3"></use>
            <path stroke="#979797" stroke-width="1" d="M328.5,33.5 L328.5,108.5 L208.5,108.5 L208.5,33.5 L328.5,33.5 Z M164.5,33.5 L164.5,108.5 L44.5,108.5 L44.5,33.5 L164.5,33.5 Z" stroke-linejoin="square" fill="#147894" fill-rule="evenodd"></path>
        </g>
        <g id="Rectangle">
            <use fill="black" fill-opacity="1" filter="url(#filter-6)" xlink:href="#path-5"></use>
            <rect stroke="#979797" stroke-width="1" stroke-linejoin="square" fill="#147894" fill-rule="evenodd" x="578.5" y="33.5" width="298" height="75"></rect>
        </g>
        <text id="Auth-Service" font-family="Montserrat-SemiBold, Montserrat" font-size="26" font-weight="500" fill="#FBFBFB">
            <tspan x="591.978401" y="76.0530303">Background Worker</tspan>
        </text>
        <text id="Auth-Service" font-family="Montserrat-SemiBold, Montserrat" font-size="26" font-weight="500" fill="#FBFBFB">
            <tspan x="390.526401" y="76.0530303">Web 3</tspan>
        </text>
        <text id="Auth-Service" font-family="Montserrat-SemiBold, Montserrat" font-size="26" font-weight="500" fill="#FBFBFB">
            <tspan x="224.526401" y="76.0530303">Web 2</tspan>
        </text>
        <text id="Auth-Service" font-family="Montserrat-SemiBold, Montserrat" font-size="26" font-weight="500" fill="#FBFBFB">
            <tspan x="65.1394013" y="76.0530303">Web 1</tspan>
        </text>
        <g id="Oval">
            <use fill="black" fill-opacity="1" filter="url(#filter-8)" xlink:href="#path-7"></use>
            <ellipse stroke="#979797" stroke-width="1" stroke-linejoin="square" fill="#F9B928" fill-rule="evenodd" cx="453" cy="315.5" rx="115.5" ry="103"></ellipse>
        </g>
        <text id="Auth-Service" font-family="Montserrat-SemiBold, Montserrat" font-size="36" font-weight="500" fill="#151414">
            <tspan x="364.875401" y="324.05303">Database</tspan>
        </text>
    </g>
</svg>