<?xml version="1.0" encoding="UTF-8"?>
<svg width="1268px" height="799px" viewBox="0 0 1268 799" version="1.1" xmlns="http://www.w3.org/2000/svg" xmlns:xlink="http://www.w3.org/1999/xlink">
    <title>Artboard</title>
    <defs>
        <rect id="path-1" x="45" y="121" width="472" height="472"></rect>
        <filter x="-1.5%" y="-1.1%" width="103.0%" height="103.0%" filterUnits="objectBoundingBox" id="filter-2">
            <feOffset dx="0" dy="2" in="SourceAlpha" result="shadowOffsetOuter1"></feOffset>
            <feGaussianBlur stdDeviation="2" in="shadowOffsetOuter1" result="shadowBlurOuter1"></feGaussianBlur>
            <feComposite in="shadowBlurOuter1" in2="SourceAlpha" operator="out" result="shadowBlurOuter1"></feComposite>
            <feColorMatrix values="0 0 0 0 0   0 0 0 0 0   0 0 0 0 0  0 0 0 0.5 0" type="matrix" in="shadowBlurOuter1"></feColorMatrix>
        </filter>
        <filter x="-1.3%" y="-0.8%" width="102.5%" height="102.5%" filterUnits="objectBoundingBox" id="filter-3">
            <feGaussianBlur stdDeviation="1.5" in="SourceAlpha" result="shadowBlurInner1"></feGaussianBlur>
            <feOffset dx="0" dy="1" in="shadowBlurInner1" result="shadowOffsetInner1"></feOffset>
            <feComposite in="shadowOffsetInner1" in2="SourceAlpha" operator="arithmetic" k2="-1" k3="1" result="shadowInnerInner1"></feComposite>
            <feColorMatrix values="0 0 0 0 0   0 0 0 0 0   0 0 0 0 0  0 0 0 0.5 0" type="matrix" in="shadowInnerInner1"></feColorMatrix>
        </filter>
        <rect id="path-4" x="634" y="181" width="258" height="121"></rect>
        <filter x="-2.7%" y="-4.1%" width="105.4%" height="111.6%" filterUnits="objectBoundingBox" id="filter-5">
            <feOffset dx="0" dy="2" in="SourceAlpha" result="shadowOffsetOuter1"></feOffset>
            <feGaussianBlur stdDeviation="2" in="shadowOffsetOuter1" result="shadowBlurOuter1"></feGaussianBlur>
            <feComposite in="shadowBlurOuter1" in2="SourceAlpha" operator="out" result="shadowBlurOuter1"></feComposite>
            <feColorMatrix values="0 0 0 0 0   0 0 0 0 0   0 0 0 0 0  0 0 0 0.5 0" type="matrix" in="shadowBlurOuter1"></feColorMatrix>
        </filter>
        <rect id="path-6" x="634" y="394" width="258" height="121"></rect>
        <filter x="-2.7%" y="-4.1%" width="105.4%" height="111.6%" filterUnits="objectBoundingBox" id="filter-7">
            <feOffset dx="0" dy="2" in="SourceAlpha" result="shadowOffsetOuter1"></feOffset>
            <feGaussianBlur stdDeviation="2" in="shadowOffsetOuter1" result="shadowBlurOuter1"></feGaussianBlur>
            <feComposite in="shadowBlurOuter1" in2="SourceAlpha" operator="out" result="shadowBlurOuter1"></feComposite>
            <feColorMatrix values="0 0 0 0 0   0 0 0 0 0   0 0 0 0 0  0 0 0 0.5 0" type="matrix" in="shadowBlurOuter1"></feColorMatrix>
        </filter>
        <path d="M308,356 L464,356 L464,463.812763 C448.405807,472.000385 437.255742,476.775438 430.549805,478.137923 C406.863015,482.950505 390.787039,483.193922 386,482.928173 C384.497771,482.844778 370.953394,483.117498 344.311035,478.137923 C337.567285,476.877486 325.463607,472.102432 308,463.812763 L308,356 Z" id="path-8"></path>
        <filter x="-1.3%" y="-1.6%" width="102.6%" height="103.1%" filterUnits="objectBoundingBox" id="filter-9">
            <feGaussianBlur stdDeviation="1.5" in="SourceAlpha" result="shadowBlurInner1"></feGaussianBlur>
            <feOffset dx="0" dy="1" in="shadowBlurInner1" result="shadowOffsetInner1"></feOffset>
            <feComposite in="shadowOffsetInner1" in2="SourceAlpha" operator="arithmetic" k2="-1" k3="1" result="shadowInnerInner1"></feComposite>
            <feColorMatrix values="0 0 0 0 0   0 0 0 0 0   0 0 0 0 0  0 0 0 0.5 0" type="matrix" in="shadowInnerInner1"></feColorMatrix>
        </filter>
        <ellipse id="path-10" cx="386" cy="356.5" rx="78" ry="29.5"></ellipse>
        <filter x="-1.3%" y="-3.4%" width="102.6%" height="106.8%" filterUnits="objectBoundingBox" id="filter-11">
            <feGaussianBlur stdDeviation="1.5" in="SourceAlpha" result="shadowBlurInner1"></feGaussianBlur>
            <feOffset dx="0" dy="1" in="shadowBlurInner1" result="shadowOffsetInner1"></feOffset>
            <feComposite in="shadowOffsetInner1" in2="SourceAlpha" operator="arithmetic" k2="-1" k3="1" result="shadowInnerInner1"></feComposite>
            <feColorMatrix values="0 0 0 0 0   0 0 0 0 0   0 0 0 0 0  0 0 0 0.5 0" type="matrix" in="shadowInnerInner1"></feColorMatrix>
        </filter>
        <rect id="path-12" x="71" y="203" width="265" height="154"></rect>
        <filter x="-2.6%" y="-3.2%" width="105.3%" height="109.1%" filterUnits="objectBoundingBox" id="filter-13">
            <feOffset dx="0" dy="2" in="SourceAlpha" result="shadowOffsetOuter1"></feOffset>
            <feGaussianBlur stdDeviation="2" in="shadowOffsetOuter1" result="shadowBlurOuter1"></feGaussianBlur>
            <feComposite in="shadowBlurOuter1" in2="SourceAlpha" operator="out" result="shadowBlurOuter1"></feComposite>
            <feColorMatrix values="0 0 0 0 0   0 0 0 0 0   0 0 0 0 0  0 0 0 0.5 0" type="matrix" in="shadowBlurOuter1"></feColorMatrix>
        </filter>
        <rect id="path-14" x="71" y="377" width="265" height="154"></rect>
        <filter x="-2.6%" y="-3.2%" width="105.3%" height="109.1%" filterUnits="objectBoundingBox" id="filter-15">
            <feOffset dx="0" dy="2" in="SourceAlpha" result="shadowOffsetOuter1"></feOffset>
            <feGaussianBlur stdDeviation="2" in="shadowOffsetOuter1" result="shadowBlurOuter1"></feGaussianBlur>
            <feComposite in="shadowBlurOuter1" in2="SourceAlpha" operator="out" result="shadowBlurOuter1"></feComposite>
            <feColorMatrix values="0 0 0 0 0   0 0 0 0 0   0 0 0 0 0  0 0 0 0.5 0" type="matrix" in="shadowBlurOuter1"></feColorMatrix>
        </filter>
        <linearGradient x1="-38.9699557%" y1="125.63001%" x2="49.0982243%" y2="65.3856852%" id="linearGradient-16">
            <stop stop-color="#664314" offset="0%"></stop>
            <stop stop-color="#A06B08" offset="100%"></stop>
        </linearGradient>
        <linearGradient x1="46.8988955%" y1="55.0789429%" x2="46.8705749%" y2="43.380405%" id="linearGradient-17">
            <stop stop-color="#8383D0" offset="0%"></stop>
            <stop stop-color="#747474" offset="100%"></stop>
        </linearGradient>
        <radialGradient cx="66.4580226%" cy="71.9872211%" fx="66.4580226%" fy="71.9872211%" r="7.63290965%" gradientTransform="translate(0.664580,0.719872),scale(0.826087,1.000000),rotate(40.581111),translate(-0.664580,-0.719872)" id="radialGradient-18">
            <stop stop-color="#FFEED6" offset="0%"></stop>
            <stop stop-color="#FFCD8B" offset="100%"></stop>
        </radialGradient>
        <linearGradient x1="50.0119736%" y1="43.2249338%" x2="45.6470687%" y2="110.043099%" id="linearGradient-19">
            <stop stop-color="#D49C56" offset="0%"></stop>
            <stop stop-color="#D49C56" stop-opacity="0.25806" offset="100%"></stop>
        </linearGradient>
        <radialGradient cx="70.74023%" cy="42.7021678%" fx="70.74023%" fy="42.7021678%" r="36.8269211%" gradientTransform="translate(0.707402,0.427022),scale(1.000000,0.717949),rotate(-1.454146),translate(-0.707402,-0.427022)" id="radialGradient-20">
            <stop stop-color="#FFEED6" offset="0%"></stop>
            <stop stop-color="#FFCD8B" offset="100%"></stop>
        </radialGradient>
        <linearGradient x1="53.2821031%" y1="100.90274%" x2="59.1672171%" y2="-6.74358039%" id="linearGradient-21">
            <stop stop-color="#D49C56" offset="0%"></stop>
            <stop stop-color="#D49C56" stop-opacity="0" offset="100%"></stop>
        </linearGradient>
        <linearGradient x1="-117.725897%" y1="-28.8056149%" x2="67.4187236%" y2="64.9850211%" id="linearGradient-22">
            <stop stop-color="#FFFFFF" offset="0%"></stop>
            <stop stop-color="#FFFFFF" stop-opacity="0" offset="100%"></stop>
        </linearGradient>
    </defs>
    <g id="Artboard" stroke="none" stroke-width="1" fill="none" fill-rule="evenodd">
        <g id="Rectangle">
            <use fill="black" fill-opacity="1" filter="url(#filter-2)" xlink:href="#path-1"></use>
            <use fill="#147894" fill-rule="evenodd" xlink:href="#path-1"></use>
            <use fill="black" fill-opacity="1" filter="url(#filter-3)" xlink:href="#path-1"></use>
            <rect stroke="#979797" stroke-width="1" stroke-linejoin="square" x="45.5" y="121.5" width="471" height="471"></rect>
        </g>
        <rect id="Rectangle" stroke="#979797" fill="#13EBF2" x="59.5" y="135.5" width="443" height="443"></rect>
        <g id="Rectangle">
            <use fill="black" fill-opacity="1" filter="url(#filter-5)" xlink:href="#path-4"></use>
            <rect stroke="#979797" stroke-width="1" stroke-linejoin="square" fill="#F9B928" fill-rule="evenodd" x="634.5" y="181.5" width="257" height="120"></rect>
        </g>
        <g id="Rectangle">
            <use fill="black" fill-opacity="1" filter="url(#filter-7)" xlink:href="#path-6"></use>
            <rect stroke="#979797" stroke-width="1" stroke-linejoin="square" fill="#F9B928" fill-rule="evenodd" x="634.5" y="394.5" width="257" height="120"></rect>
        </g>
        <path id="Line-3" d="M633.878484,255.173274 L625.703872,274.780051 L620.476,268.724 L517.480177,357.635453 L516.344724,358.61563 L514.38437,356.344724 L515.519823,355.364547 L618.515,266.453 L613.288295,260.397651 L633.878484,255.173274 Z" fill="#1F1C1C" fill-rule="nonzero"></path>
        <path id="Line-4" d="M516.323834,353.386007 L517.468913,354.354921 L620.345,441.404 L625.513805,435.297899 L633.881693,454.822971 L613.240902,449.802238 L618.408,443.695 L515.531087,356.645079 L514.386007,355.676166 L516.323834,353.386007 Z" fill="#1F1C1C" fill-rule="nonzero"></path>
        <path id="Line-5" d="M846.996788,67.4392288 L848.27878,68.2180086 L939.467,123.613 L943.621045,116.77577 L954.92733,134.759593 L933.7565,133.014328 L937.91,126.177 L846.72122,70.7819914 L845.439229,70.0032116 L846.996788,67.4392288 Z" fill="#F21919" fill-rule="nonzero"></path>
        <path id="Line-6" d="M954.905839,561.207948 L945.03295,580.016883 L940.359,573.523 L848.376157,639.717517 L847.15864,640.593675 L845.406325,638.15864 L846.623843,637.282483 L938.607,571.087 L933.934957,564.594997 L954.905839,561.207948 Z" fill="#F90000" fill-rule="nonzero"></path>
        <g id="Rectangle">
            <use fill="#0F8B72" fill-rule="evenodd" xlink:href="#path-8"></use>
            <use fill="black" fill-opacity="1" filter="url(#filter-9)" xlink:href="#path-8"></use>
            <path stroke="#403C3C" stroke-width="1" d="M463.5,356.5 L463.5,463.510451 C448.106904,471.580307 437.091956,476.2985 430.450251,477.647934 C410.837086,481.632854 396.45457,482.479162 389.402997,482.499615 C387.704525,482.496468 386.740116,482.468491 386.027714,482.428942 C385.872195,482.420309 385.590521,482.415177 385.181553,482.408059 C381.63818,482.346387 368.300351,482.112974 344.402897,477.646434 C337.718097,476.397015 325.751793,471.675228 308.5,463.496546 L308.5,463.496546 L308.5,356.5 L463.5,356.5 Z" stroke-linejoin="square"></path>
        </g>
        <g id="Oval">
            <use fill="#0F8B72" fill-rule="evenodd" xlink:href="#path-10"></use>
            <use fill="black" fill-opacity="1" filter="url(#filter-11)" xlink:href="#path-10"></use>
            <ellipse stroke="#323030" stroke-width="1" stroke-linejoin="square" cx="386" cy="356.5" rx="77.5" ry="29"></ellipse>
        </g>
        <g id="Rectangle">
            <use fill="black" fill-opacity="1" filter="url(#filter-13)" xlink:href="#path-12"></use>
            <rect stroke="#979797" stroke-width="1" stroke-linejoin="square" fill="#28E2BD" fill-rule="evenodd" x="71.5" y="203.5" width="264" height="153"></rect>
        </g>
        <g id="Rectangle">
            <use fill="black" fill-opacity="1" filter="url(#filter-15)" xlink:href="#path-14"></use>
            <rect stroke="#979797" stroke-width="1" stroke-linejoin="square" fill="#28E2BD" fill-rule="evenodd" x="71.5" y="377.5" width="264" height="153"></rect>
        </g>
        <text id="FunnyMugs.com-Tenant" font-family="Montserrat-SemiBold, Montserrat" font-size="20" font-weight="500" fill="#0A0A0A">
            <tspan x="118.09" y="413">FunnyMugs.com</tspan>
            <tspan x="168.3" y="437">Tenant</tspan>
        </text>
        <text id="Acme-Corp.-Identity" font-family="Montserrat-SemiBold, Montserrat" font-size="26" font-weight="500" fill="#0A0A0A">
            <tspan x="71" y="181">Acme Corp. Identity Provider</tspan>
        </text>
        <text id="DB" font-family="Montserrat-SemiBold, Montserrat" font-size="20" font-weight="500" fill="#FEFEFE">
            <tspan x="369" y="432">DB</tspan>
        </text>
        <text id="Joe’s-password-DOESN" font-family="Montserrat-SemiBold, Montserrat" font-size="20" font-weight="500" fill="#0A0A0A">
            <tspan x="605" y="677">Joe’s password DOESN’T </tspan>
            <tspan x="605" y="701">change on FunnyMugs.com</tspan>
        </text>
        <text id="FunnyMugs.com" font-family="Montserrat-SemiBold, Montserrat" font-size="20" font-weight="500" fill="#0A0A0A">
            <tspan x="677" y="461">FunnyMugs.com</tspan>
        </text>
        <text id="Joe-changes-his-pass" font-family="Montserrat-SemiBold, Montserrat" font-size="20" font-weight="500" fill="#0A0A0A">
            <tspan x="604" y="30">Joe changes his password on </tspan>
            <tspan x="604" y="54">ChuckNorrisJokes.com</tspan>
        </text>
        <text id="joe@example.com" font-family="Montserrat-SemiBold, Montserrat" font-size="14" font-weight="500" fill="#0A0A0A">
            <tspan x="954" y="193">joe@example.com</tspan>
        </text>
        <text id="joe@example.com" font-family="Montserrat-SemiBold, Montserrat" font-size="14" font-weight="500" fill="#0A0A0A">
            <tspan x="954" y="410">joe@example.com</tspan>
        </text>
        <text id="ChuckNorrisJokes.com" font-family="Montserrat-SemiBold, Montserrat" font-size="20" font-weight="500" fill="#0A0A0A">
            <tspan x="85.78" y="245">ChuckNorrisJokes.com</tspan>
            <tspan x="168.3" y="269">Tenant</tspan>
        </text>
        <text id="ChuckNorrisJokes.com" font-family="Montserrat-SemiBold, Montserrat" font-size="20" font-weight="500" fill="#0A0A0A">
            <tspan x="644" y="250">ChuckNorrisJokes.com</tspan>
        </text>
        <text id="joe@example.com" font-family="Montserrat-SemiBold, Montserrat" font-size="14" font-weight="500" fill="#0A0A0A">
            <tspan x="954" y="193">joe@example.com</tspan>
        </text>
        <g id="acspike_male_user_icon" transform="translate(258.000000, 282.000000)" fill-rule="nonzero">
            <path d="M50.8256205,19.339952 C51.9571726,11.2370801 47.6572749,0.245428552 35.7123288,0.00604727827 C20.2171382,-0.30339537 17.3316805,11.3276767 18.1166947,20.0102196 C19.078514,30.5849794 48.8383323,33.5776136 50.8256205,19.339952 Z" id="path12688" fill="url(#linearGradient-16)"></path>
            <path d="M0,64.7970857 C1.61899368,60.384515 2.33267252,52.1935624 7.90333239,49.4591127 L33.747758,44 L60.7353913,49.0650283 C65.4866421,50.7490213 67.7334089,59.8723358 70,65.0424097 C68.5197772,66.0909091 67.2510148,67.6431057 65.4866421,68 L4.24242424,68 C2.25998301,67.2725098 1.24893798,65.9623749 0,64.7970857 L0,64.7970857 Z" id="path12692" fill="url(#linearGradient-17)"></path>
            <path d="M25.3754919,36.0674079 C25.5239601,39.9714826 24.6755702,42.2217855 23,45.5316445 C29.5255328,58.6221407 46.4367728,51.874319 45.991368,45.1627677 L44.1249101,34 L25.3754919,36.0674079 L25.3754919,36.0674079 Z" id="path12694" stroke="url(#linearGradient-19)" stroke-width="1.1403" fill="url(#radialGradient-18)"></path>
            <path d="M49.3219707,36.3768775 C49.3219707,36.3768775 43.9230937,41.5889881 40.9052939,43.0099607 C37.8941267,44.4309333 37.0517957,44.2387006 34.2064417,42.9655993 C31.3677201,41.6932021 24.7882534,36.7324727 24.7882534,36.7324727 C21.9561643,24.5577373 20.9878154,11.7964457 33.5829841,5 L37.3104643,9.70019428 C38.6900299,11.4394422 44.7455271,14.14267 47.0271163,11.8239075 C48.8377962,9.9938244 49.9387957,16.704364 51,18.2478585 C50.6617411,23.8789377 50.5158255,30.7450941 49.3219707,36.3768775 Z" id="path12696" stroke="url(#linearGradient-21)" stroke-width="1.1403" fill="url(#radialGradient-20)"></path>
            <path d="M23.1563712,21.880977 C22.6267205,27.5260207 23.5069851,32.918953 24.8273818,38.6780806 C28.4752577,41.4618703 31.2428691,45.1343881 38.8593952,43.6646768 C41.4703493,43.1034118 40.5005664,41.9266568 42,41.2153926 C32.9959383,43.741437 31.5263441,41.9555299 26.8863057,36.8118923 L23.8202995,20 L23.1563712,21.880977 L23.1563712,21.880977 Z" id="path13605" fill="url(#linearGradient-22)"></path>
        </g>
        <g id="acspike_male_user_icon" transform="translate(258.000000, 455.000000)" fill-rule="nonzero">
            <path d="M50.8256205,19.339952 C51.9571726,11.2370801 47.6572749,0.245428552 35.7123288,0.00604727827 C20.2171382,-0.30339537 17.3316805,11.3276767 18.1166947,20.0102196 C19.078514,30.5849794 48.8383323,33.5776136 50.8256205,19.339952 Z" id="path12688" fill="url(#linearGradient-16)"></path>
            <path d="M0,64.7970857 C1.61899368,60.384515 2.33267252,52.1935624 7.90333239,49.4591127 L33.747758,44 L60.7353913,49.0650283 C65.4866421,50.7490213 67.7334089,59.8723358 70,65.0424097 C68.5197772,66.0909091 67.2510148,67.6431057 65.4866421,68 L4.24242424,68 C2.25998301,67.2725098 1.24893798,65.9623749 0,64.7970857 L0,64.7970857 Z" id="path12692" fill="#C33221"></path>
            <path d="M25.3754919,36.0674079 C25.5239601,39.9714826 24.6755702,42.2217855 23,45.5316445 C29.5255328,58.6221407 46.4367728,51.874319 45.991368,45.1627677 L44.1249101,34 L25.3754919,36.0674079 L25.3754919,36.0674079 Z" id="path12694" stroke="url(#linearGradient-19)" stroke-width="1.1403" fill="url(#radialGradient-18)"></path>
            <path d="M51,18.2478585 C50.6617411,23.8789377 50.5158255,30.7450941 49.3219707,36.3768775 C49.3219707,36.3768775 43.9230937,41.5889881 40.9052939,43.0099607 C37.8941267,44.4309333 37.0517957,44.2387006 34.2064417,42.9655993 C31.3677201,41.6932021 24.7882534,36.7324727 24.7882534,36.7324727 C21.9561643,24.5577373 20.9878154,11.7964457 33.5829841,5 L37.3104643,9.70019428 C38.6900299,11.4394422 44.7455271,14.14267 47.0271163,11.8239075 C48.8377962,9.9938244 49.9387957,16.704364 51,18.2478585 L51,18.2478585 Z" id="path12696" stroke="url(#linearGradient-21)" stroke-width="1.1403" fill="url(#radialGradient-20)"></path>
            <path d="M23.1563712,21.880977 C22.6267205,27.5260207 23.5069851,32.918953 24.8273818,38.6780806 C28.4752577,41.4618703 31.2428691,45.1343881 38.8593952,43.6646768 C41.4703493,43.1034118 40.5005664,41.9266568 42,41.2153926 C32.9959383,43.741437 31.5263441,41.9555299 26.8863057,36.8118923 L23.8202995,20 L23.1563712,21.880977 L23.1563712,21.880977 Z" id="path13605" fill="url(#linearGradient-22)"></path>
        </g>
        <g id="acspike_male_user_icon" transform="translate(986.000000, 432.000000)" fill-rule="nonzero">
            <path d="M50.8256205,19.339952 C51.9571726,11.2370801 47.6572749,0.245428552 35.7123288,0.00604727827 C20.2171382,-0.30339537 17.3316805,11.3276767 18.1166947,20.0102196 C19.078514,30.5849794 48.8383323,33.5776136 50.8256205,19.339952 Z" id="path12688" fill="url(#linearGradient-16)"></path>
            <path d="M0,64.7970857 C1.61899368,60.384515 2.33267252,52.1935624 7.90333239,49.4591127 L33.747758,44 L60.7353913,49.0650283 C65.4866421,50.7490213 67.7334089,59.8723358 70,65.0424097 C68.5197772,66.0909091 67.2510148,67.6431057 65.4866421,68 L4.24242424,68 C2.25998301,67.2725098 1.24893798,65.9623749 0,64.7970857 L0,64.7970857 Z" id="path12692" fill="#C33221"></path>
            <path d="M25.3754919,36.0674079 C25.5239601,39.9714826 24.6755702,42.2217855 23,45.5316445 C29.5255328,58.6221407 46.4367728,51.874319 45.991368,45.1627677 L44.1249101,34 L25.3754919,36.0674079 L25.3754919,36.0674079 Z" id="path12694" stroke="url(#linearGradient-19)" stroke-width="1.1403" fill="url(#radialGradient-18)"></path>
            <path d="M51,18.2478585 C50.6617411,23.8789377 50.5158255,30.7450941 49.3219707,36.3768775 C49.3219707,36.3768775 43.9230937,41.5889881 40.9052939,43.0099607 C37.8941267,44.4309333 37.0517957,44.2387006 34.2064417,42.9655993 C31.3677201,41.6932021 24.7882534,36.7324727 24.7882534,36.7324727 C21.9561643,24.5577373 20.9878154,11.7964457 33.5829841,5 L37.3104643,9.70019428 C38.6900299,11.4394422 44.7455271,14.14267 47.0271163,11.8239075 C48.8377962,9.9938244 49.9387957,16.704364 51,18.2478585 L51,18.2478585 Z" id="path12696" stroke="url(#linearGradient-21)" stroke-width="1.1403" fill="url(#radialGradient-20)"></path>
            <path d="M23.1563712,21.880977 C22.6267205,27.5260207 23.5069851,32.918953 24.8273818,38.6780806 C28.4752577,41.4618703 31.2428691,45.1343881 38.8593952,43.6646768 C41.4703493,43.1034118 40.5005664,41.9266568 42,41.2153926 C32.9959383,43.741437 31.5263441,41.9555299 26.8863057,36.8118923 L23.8202995,20 L23.1563712,21.880977 L23.1563712,21.880977 Z" id="path13605" fill="url(#linearGradient-22)"></path>
        </g>
        <g id="acspike_male_user_icon" transform="translate(986.000000, 212.000000)" fill-rule="nonzero">
            <path d="M50.8256205,19.339952 C51.9571726,11.2370801 47.6572749,0.245428552 35.7123288,0.00604727827 C20.2171382,-0.30339537 17.3316805,11.3276767 18.1166947,20.0102196 C19.078514,30.5849794 48.8383323,33.5776136 50.8256205,19.339952 Z" id="path12688" fill="url(#linearGradient-16)"></path>
            <path d="M0,64.7970857 C1.61899368,60.384515 2.33267252,52.1935624 7.90333239,49.4591127 L33.747758,44 L60.7353913,49.0650283 C65.4866421,50.7490213 67.7334089,59.8723358 70,65.0424097 C68.5197772,66.0909091 67.2510148,67.6431057 65.4866421,68 L4.24242424,68 C2.25998301,67.2725098 1.24893798,65.9623749 0,64.7970857 L0,64.7970857 Z" id="path12692" fill="url(#linearGradient-17)"></path>
            <path d="M25.3754919,36.0674079 C25.5239601,39.9714826 24.6755702,42.2217855 23,45.5316445 C29.5255328,58.6221407 46.4367728,51.874319 45.991368,45.1627677 L44.1249101,34 L25.3754919,36.0674079 L25.3754919,36.0674079 Z" id="path12694" stroke="url(#linearGradient-19)" stroke-width="1.1403" fill="url(#radialGradient-18)"></path>
            <path d="M51,18.2478585 C50.6617411,23.8789377 50.5158255,30.7450941 49.3219707,36.3768775 C49.3219707,36.3768775 43.9230937,41.5889881 40.9052939,43.0099607 C37.8941267,44.4309333 37.0517957,44.2387006 34.2064417,42.9655993 C31.3677201,41.6932021 24.7882534,36.7324727 24.7882534,36.7324727 C21.9561643,24.5577373 20.9878154,11.7964457 33.5829841,5 L37.3104643,9.70019428 C38.6900299,11.4394422 44.7455271,14.14267 47.0271163,11.8239075 C48.8377962,9.9938244 49.9387957,16.704364 51,18.2478585 L51,18.2478585 Z" id="path12696" stroke="url(#linearGradient-21)" stroke-width="1.1403" fill="url(#radialGradient-20)"></path>
            <path d="M23.1563712,21.880977 C22.6267205,27.5260207 23.5069851,32.918953 24.8273818,38.6780806 C28.4752577,41.4618703 31.2428691,45.1343881 38.8593952,43.6646768 C41.4703493,43.1034118 40.5005664,41.9266568 42,41.2153926 C32.9959383,43.741437 31.5263441,41.9555299 26.8863057,36.8118923 L23.8202995,20 L23.1563712,21.880977 L23.1563712,21.880977 Z" id="path13605" fill="url(#linearGradient-22)"></path>
        </g>
    </g>
</svg>