<?xml version="1.0" encoding="UTF-8"?>
<svg width="906px" height="437px" viewBox="0 0 906 437" version="1.1" xmlns="http://www.w3.org/2000/svg" xmlns:xlink="http://www.w3.org/1999/xlink">
    <title>Artboard</title>
    <defs>
        <rect id="path-1" x="372" y="33" width="121" height="76"></rect>
        <filter x="-5.8%" y="-6.6%" width="111.6%" height="118.4%" filterUnits="objectBoundingBox" id="filter-2">
            <feOffset dx="0" dy="2" in="SourceAlpha" result="shadowOffsetOuter1"></feOffset>
            <feGaussianBlur stdDeviation="2" in="shadowOffsetOuter1" result="shadowBlurOuter1"></feGaussianBlur>
            <feComposite in="shadowBlurOuter1" in2="SourceAlpha" operator="out" result="shadowBlurOuter1"></feComposite>
            <feColorMatrix values="0 0 0 0 0   0 0 0 0 0   0 0 0 0 0  0 0 0 0.5 0" type="matrix" in="shadowBlurOuter1"></feColorMatrix>
        </filter>
        <path d="M329,33 L329,109 L208,109 L208,33 L329,33 Z M165,33 L165,109 L44,109 L44,33 L165,33 Z" id="path-3"></path>
        <filter x="-2.5%" y="-6.6%" width="104.9%" height="118.4%" filterUnits="objectBoundingBox" id="filter-4">
            <feOffset dx="0" dy="2" in="SourceAlpha" result="shadowOffsetOuter1"></feOffset>
            <feGaussianBlur stdDeviation="2" in="shadowOffsetOuter1" result="shadowBlurOuter1"></feGaussianBlur>
            <feComposite in="shadowBlurOuter1" in2="SourceAlpha" operator="out" result="shadowBlurOuter1"></feComposite>
            <feColorMatrix values="0 0 0 0 0   0 0 0 0 0   0 0 0 0 0  0 0 0 0.5 0" type="matrix" in="shadowBlurOuter1"></feColorMatrix>
        </filter>
        <rect id="path-5" x="578" y="33" width="299" height="76"></rect>
        <filter x="-2.3%" y="-6.6%" width="104.7%" height="118.4%" filterUnits="objectBoundingBox" id="filter-6">
            <feOffset dx="0" dy="2" in="SourceAlpha" result="shadowOffsetOuter1"></feOffset>
            <feGaussianBlur stdDeviation="2" in="shadowOffsetOuter1" result="shadowBlurOuter1"></feGaussianBlur>
            <feComposite in="shadowBlurOuter1" in2="SourceAlpha" operator="out" result="shadowBlurOuter1"></feComposite>
            <feColorMatrix values="0 0 0 0 0   0 0 0 0 0   0 0 0 0 0  0 0 0 0.5 0" type="matrix" in="shadowBlurOuter1"></feColorMatrix>
        </filter>
        <ellipse id="path-7" cx="118.5" cy="304" rx="101.5" ry="91"></ellipse>
        <filter x="-3.4%" y="-2.7%" width="106.9%" height="107.7%" filterUnits="objectBoundingBox" id="filter-8">
            <feOffset dx="0" dy="2" in="SourceAlpha" result="shadowOffsetOuter1"></feOffset>
            <feGaussianBlur stdDeviation="2" in="shadowOffsetOuter1" result="shadowBlurOuter1"></feGaussianBlur>
            <feComposite in="shadowBlurOuter1" in2="SourceAlpha" operator="out" result="shadowBlurOuter1"></feComposite>
            <feColorMatrix values="0 0 0 0 0   0 0 0 0 0   0 0 0 0 0  0 0 0 0.5 0" type="matrix" in="shadowBlurOuter1"></feColorMatrix>
        </filter>
        <ellipse id="path-9" cx="489" cy="324" rx="86" ry="77"></ellipse>
        <filter x="-4.1%" y="-3.2%" width="108.1%" height="109.1%" filterUnits="objectBoundingBox" id="filter-10">
            <feOffset dx="0" dy="2" in="SourceAlpha" result="shadowOffsetOuter1"></feOffset>
            <feGaussianBlur stdDeviation="2" in="shadowOffsetOuter1" result="shadowBlurOuter1"></feGaussianBlur>
            <feComposite in="shadowBlurOuter1" in2="SourceAlpha" operator="out" result="shadowBlurOuter1"></feComposite>
            <feColorMatrix values="0 0 0 0 0   0 0 0 0 0   0 0 0 0 0  0 0 0 0.5 0" type="matrix" in="shadowBlurOuter1"></feColorMatrix>
        </filter>
        <ellipse id="path-11" cx="701" cy="324" rx="86" ry="77"></ellipse>
        <filter x="-4.1%" y="-3.2%" width="108.1%" height="109.1%" filterUnits="objectBoundingBox" id="filter-12">
            <feOffset dx="0" dy="2" in="SourceAlpha" result="shadowOffsetOuter1"></feOffset>
            <feGaussianBlur stdDeviation="2" in="shadowOffsetOuter1" result="shadowBlurOuter1"></feGaussianBlur>
            <feComposite in="shadowBlurOuter1" in2="SourceAlpha" operator="out" result="shadowBlurOuter1"></feComposite>
            <feColorMatrix values="0 0 0 0 0   0 0 0 0 0   0 0 0 0 0  0 0 0 0.5 0" type="matrix" in="shadowBlurOuter1"></feColorMatrix>
        </filter>
    </defs>
    <g id="Artboard" stroke="none" stroke-width="1" fill="none" fill-rule="evenodd">
        <path id="Line" d="M608.328578,223.80821 L609.033934,225.13202 L617.666333,241.333307 L618.920297,243.686747 L616.25788,243.536272 L597.92957,242.500384 L596.43196,242.415741 L596.601245,239.420521 L598.098855,239.505164 L610.709,240.217 L608.621659,238.882741 L607.357875,238.074748 L608.973861,235.547182 L610.237644,236.355174 L612.325,237.69 L606.386313,226.54273 L605.680957,225.21892 L608.328578,223.80821 Z M600.548639,230.160565 L601.812422,230.968557 L603.732179,232.195942 L606.025033,233.661866 L607.288816,234.469858 L605.672831,236.997425 L604.409048,236.189432 L602.116194,234.723509 L600.196437,233.496124 L598.932654,232.688131 L600.548639,230.160565 Z M592.123418,224.773948 L593.387201,225.58194 L597.599812,228.275249 L598.863595,229.083241 L597.24761,231.610808 L595.983826,230.802815 L591.771216,228.109507 L590.507432,227.301514 L592.123418,224.773948 Z M583.698196,219.387331 L584.961979,220.195323 L589.17459,222.888632 L590.438373,223.696624 L588.822388,226.224191 L587.558605,225.416198 L583.345994,222.72289 L582.082211,221.914897 L583.698196,219.387331 Z M575.272975,214.000714 L576.536758,214.808706 L580.749369,217.502015 L582.013152,218.310007 L580.397167,220.837574 L579.133383,220.029581 L574.920773,217.336273 L573.65699,216.52828 L575.272975,214.000714 Z M566.847753,208.614096 L568.111536,209.422089 L572.324147,212.115398 L573.58793,212.92339 L571.971945,215.450957 L570.708162,214.642964 L566.495551,211.949655 L565.231768,211.141663 L566.847753,208.614096 Z M558.422532,203.227479 L559.686315,204.035472 L563.898926,206.728781 L565.162709,207.536773 L563.546724,210.06434 L562.282941,209.256347 L558.07033,206.563038 L556.806547,205.755046 L558.422532,203.227479 Z M549.99731,197.840862 L551.261093,198.648855 L555.473704,201.342164 L556.737487,202.150156 L555.121502,204.677723 L553.857719,203.86973 L549.645108,201.176421 L548.381325,200.368429 L549.99731,197.840862 Z M541.572089,192.454245 L542.835872,193.262238 L547.048483,195.955547 L548.312266,196.763539 L546.696281,199.291106 L545.432498,198.483113 L541.219887,195.789804 L539.956104,194.981812 L541.572089,192.454245 Z M533.146867,187.067628 L534.41065,187.875621 L538.623261,190.568929 L539.887044,191.376922 L538.271059,193.904488 L537.007276,193.096496 L532.794665,190.403187 L531.530882,189.595195 L533.146867,187.067628 Z M524.721646,181.681011 L525.985429,182.489004 L530.19804,185.182312 L531.461823,185.990305 L529.845838,188.517871 L528.582055,187.709879 L524.369444,185.01657 L523.105661,184.208578 L524.721646,181.681011 Z M516.296424,176.294394 L517.560207,177.102387 L521.772818,179.795695 L523.036601,180.603688 L521.420616,183.131254 L520.156833,182.323262 L515.944222,179.629953 L514.680439,178.821961 L516.296424,176.294394 Z M507.871203,170.907777 L509.134986,171.71577 L513.347597,174.409078 L514.61138,175.217071 L512.995395,177.744637 L511.731612,176.936645 L507.519001,174.243336 L506.255218,173.435344 L507.871203,170.907777 Z M499.445981,165.52116 L500.709764,166.329153 L504.922375,169.022461 L506.186158,169.830454 L504.570173,172.35802 L503.30639,171.550028 L499.093779,168.856719 L497.829996,168.048727 L499.445981,165.52116 Z M491.02076,160.134543 L492.284543,160.942536 L496.497154,163.635844 L497.760937,164.443837 L496.144952,166.971403 L494.881169,166.163411 L490.668558,163.470102 L489.404775,162.66211 L491.02076,160.134543 Z M482.595538,154.747926 L483.859321,155.555919 L488.071932,158.249227 L489.335715,159.05722 L487.71973,161.584786 L486.455947,160.776794 L482.243336,158.083485 L480.979553,157.275493 L482.595538,154.747926 Z M474.170317,149.361309 L475.4341,150.169302 L479.646711,152.86261 L480.910494,153.670603 L479.294509,156.198169 L478.030726,155.390177 L473.818115,152.696868 L472.554332,151.888876 L474.170317,149.361309 Z M465.745095,143.974692 L467.008879,144.782685 L471.221489,147.475993 L472.485272,148.283986 L470.869287,150.811552 L469.605504,150.00356 L465.392893,147.310251 L464.12911,146.502259 L465.745095,143.974692 Z M457.319874,138.588075 L458.583657,139.396068 L462.796268,142.089376 L464.060051,142.897369 L462.444066,145.424935 L461.180283,144.616943 L456.967672,141.923634 L455.703889,141.115642 L457.319874,138.588075 Z M448.894652,133.201458 L450.158436,134.009451 L454.371046,136.702759 L455.634829,137.510752 L454.018844,140.038318 L452.755061,139.230326 L448.54245,136.537017 L447.278667,135.729025 L448.894652,133.201458 Z M440.469431,127.814841 L441.733214,128.622834 L445.945825,131.316142 L447.209608,132.124135 L445.593623,134.651701 L444.32984,133.843709 L440.117229,131.1504 L438.853446,130.342408 L440.469431,127.814841 Z M432.044209,122.428224 L433.307993,123.236217 L437.520603,125.929525 L438.784387,126.737518 L437.168401,129.265084 L435.904618,128.457092 L431.692007,125.763783 L430.428224,124.955791 L432.044209,122.428224 Z" fill="#000000" fill-rule="nonzero"></path>
        <path id="Line-3" d="M63.785645,193.423354 L66.7789105,193.624255 L66.6784597,195.120888 L65.833,207.722 L66.9673281,205.98959 L67.7886196,204.734409 L70.2989823,206.376992 L69.4776908,207.632173 L68.343,209.366 L79.5526653,203.544751 L80.8838497,202.853413 L82.2665256,205.515782 L80.9353413,206.20712 L64.6438103,214.667972 L62.2772603,215.897017 L62.4558396,213.236337 L63.6851941,194.919986 L63.785645,193.423354 Z M73.2638963,196.366533 L75.774259,198.009116 L74.9529675,199.264298 L73.9208451,200.841692 L72.2153291,203.448235 L71.3940376,204.703417 L68.8836749,203.060834 L69.7049664,201.805652 L71.4104824,199.199109 L72.4426048,197.621715 L73.2638963,196.366533 Z M78.739173,187.998657 L81.2495358,189.64124 L80.4282442,190.896422 L77.6906059,195.08036 L76.8693144,196.335541 L74.3589516,194.692958 L75.1802432,193.437777 L77.9178815,189.253839 L78.739173,187.998657 Z M84.2144498,179.630782 L86.7248125,181.273365 L85.903521,182.528546 L83.1658826,186.712484 L82.3445911,187.967665 L79.8342284,186.325082 L80.6555199,185.069901 L83.3931582,180.885963 L84.2144498,179.630782 Z M89.6897265,171.262906 L92.2000892,172.905489 L91.3787977,174.16067 L88.6411593,178.344608 L87.8198678,179.59979 L85.3095051,177.957207 L86.1307966,176.702025 L88.868435,172.518087 L89.6897265,171.262906 Z M95.1650032,162.89503 L97.6753659,164.537613 L96.8540744,165.792795 L94.1164361,169.976732 L93.2951446,171.231914 L90.7847818,169.589331 L91.6060733,168.334149 L94.3437117,164.150212 L95.1650032,162.89503 Z M100.64028,154.527154 L103.150643,156.169737 L102.329351,157.424919 L99.5917128,161.608857 L98.7704213,162.864038 L96.2600586,161.221455 L97.0813501,159.966274 L99.8189884,155.782336 L100.64028,154.527154 Z M106.115557,146.159279 L108.625919,147.801862 L107.804628,149.057043 L105.06699,153.240981 L104.245698,154.496162 L101.735335,152.853579 L102.556627,151.598398 L105.294265,147.41446 L106.115557,146.159279 Z M111.590833,137.791403 L114.101196,139.433986 L113.279905,140.689167 L110.542266,144.873105 L109.720975,146.128287 L107.210612,144.485703 L108.031904,143.230522 L110.769542,139.046584 L111.590833,137.791403 Z M117.06611,129.423527 L119.576473,131.06611 L118.755181,132.321292 L116.017543,136.505229 L115.196251,137.760411 L112.685889,136.117828 L113.50718,134.862646 L116.244819,130.678708 L117.06611,129.423527 Z" fill="#000000" fill-rule="nonzero"></path>
        <path id="Line-4" d="M673.131766,210.787914 L673.475528,212.247992 L676.37,224.543 L677.526501,220.539787 L677.942707,219.098685 L680.824909,219.931097 L680.408704,221.372198 L679.252,225.375 L688.256686,216.516951 L689.325956,215.464972 L691.429914,217.603514 L690.360644,218.655493 L677.274509,231.530005 L675.373583,233.40019 L674.762451,230.804496 L670.555371,212.935515 L670.21161,211.475437 L673.131766,210.787914 Z M680.717412,209.491344 L683.599614,210.323755 L683.183408,211.764856 L682.093354,215.539142 L681.796056,216.568527 L681.37985,218.009628 L678.497648,217.177217 L678.913853,215.736116 L679.211151,214.706731 L680.301206,210.932445 L680.717412,209.491344 Z M683.492116,199.884002 L686.374319,200.716413 L685.958113,202.157515 L684.570761,206.961186 L684.154555,208.402287 L681.272352,207.569875 L681.688558,206.128774 L683.075911,201.325103 L683.492116,199.884002 Z M686.266821,190.27666 L689.149023,191.109072 L688.732818,192.550173 L687.345465,197.353844 L686.92926,198.794945 L684.047057,197.962534 L684.463263,196.521432 L685.850615,191.717762 L686.266821,190.27666 Z M689.041526,180.669319 L691.923728,181.50173 L691.507523,182.942831 L690.12017,187.746502 L689.703964,189.187603 L686.821762,188.355192 L687.237968,186.914091 L688.62532,182.11042 L689.041526,180.669319 Z M691.81623,171.061977 L694.698433,171.894388 L694.282227,173.33549 L692.894875,178.139161 L692.478669,179.580262 L689.596467,178.74785 L690.012672,177.306749 L691.400025,172.503078 L691.81623,171.061977 Z M694.590935,161.454635 L697.473138,162.287047 L697.056932,163.728148 L695.66958,168.531819 L695.253374,169.97292 L692.371171,169.140509 L692.787377,167.699407 L694.174729,162.895737 L694.590935,161.454635 Z M697.36564,151.847294 L700.247842,152.679705 L699.831637,154.120806 L698.444284,158.924477 L698.028079,160.365579 L695.145876,159.533167 L695.562082,158.092066 L696.949434,153.288395 L697.36564,151.847294 Z M700.140345,142.239952 L703.022547,143.072364 L702.606341,144.513465 L701.218989,149.317136 L700.802783,150.758237 L697.920581,149.925825 L698.336787,148.484724 L699.724139,143.681053 L700.140345,142.239952 Z M702.915049,132.63261 L705.797252,133.465022 L705.381046,134.906123 L703.993694,139.709794 L703.577488,141.150895 L700.695286,140.318484 L701.111491,138.877383 L702.498844,134.073712 L702.915049,132.63261 Z M705.689754,123.025269 L708.571957,123.85768 L708.155751,125.298781 L706.768399,130.102452 L706.352193,131.543554 L703.46999,130.711142 L703.886196,129.270041 L705.273548,124.46637 L705.689754,123.025269 Z" fill="#000000" fill-rule="nonzero"></path>
        <path id="Line-5" d="M348.928029,313.457245 L350.235392,314.192637 L366.235392,323.192637 L368.559593,324.5 L366.235392,325.807363 L350.235392,334.807363 L348.928029,335.542755 L347.457245,332.928029 L348.764608,332.192637 L359.773,326 L357,326 L357,323 L359.773,323 L348.764608,316.807363 L347.457245,316.071971 L348.928029,313.457245 Z M255,323 L255,326 L247,326 L247,323 L255,323 Z M265,323 L265,326 L257,326 L257,323 L265,323 Z M275,323 L275,326 L267,326 L267,323 L275,323 Z M285,323 L285,326 L277,326 L277,323 L285,323 Z M295,323 L295,326 L287,326 L287,323 L295,323 Z M305,323 L305,326 L297,326 L297,323 L305,323 Z M315,323 L315,326 L307,326 L307,323 L315,323 Z M325,323 L325,326 L317,326 L317,323 L325,323 Z M335,323 L335,326 L327,326 L327,323 L335,323 Z M345,323 L345,326 L337,326 L337,323 L345,323 Z M355,323 L355,326 L347,326 L347,323 L355,323 Z" fill="#000000" fill-rule="nonzero"></path>
        <g id="Rectangle">
            <use fill="black" fill-opacity="1" filter="url(#filter-2)" xlink:href="#path-1"></use>
            <rect stroke="#979797" stroke-width="1" stroke-linejoin="square" fill="#147894" fill-rule="evenodd" x="372.5" y="33.5" width="120" height="75"></rect>
        </g>
        <g id="Rectangle-2">
            <use fill="black" fill-opacity="1" filter="url(#filter-4)" xlink:href="#path-3"></use>
            <path stroke="#979797" stroke-width="1" d="M328.5,33.5 L328.5,108.5 L208.5,108.5 L208.5,33.5 L328.5,33.5 Z M164.5,33.5 L164.5,108.5 L44.5,108.5 L44.5,33.5 L164.5,33.5 Z" stroke-linejoin="square" fill="#147894" fill-rule="evenodd"></path>
        </g>
        <g id="Rectangle">
            <use fill="black" fill-opacity="1" filter="url(#filter-6)" xlink:href="#path-5"></use>
            <rect stroke="#979797" stroke-width="1" stroke-linejoin="square" fill="#147894" fill-rule="evenodd" x="578.5" y="33.5" width="298" height="75"></rect>
        </g>
        <text id="Auth-Service" font-family="Montserrat-SemiBold, Montserrat" font-size="26" font-weight="500" fill="#FBFBFB">
            <tspan x="591.978401" y="76.0530303">Background Worker</tspan>
        </text>
        <text id="Auth-Service" font-family="Montserrat-SemiBold, Montserrat" font-size="26" font-weight="500" fill="#FBFBFB">
            <tspan x="390.526401" y="76.0530303">Web 3</tspan>
        </text>
        <text id="Auth-Service" font-family="Montserrat-SemiBold, Montserrat" font-size="26" font-weight="500" fill="#FBFBFB">
            <tspan x="224.526401" y="76.0530303">Web 2</tspan>
        </text>
        <text id="Auth-Service" font-family="Montserrat-SemiBold, Montserrat" font-size="26" font-weight="500" fill="#FBFBFB">
            <tspan x="65.1394013" y="76.0530303">Web 1</tspan>
        </text>
        <g id="Oval">
            <use fill="black" fill-opacity="1" filter="url(#filter-8)" xlink:href="#path-7"></use>
            <ellipse stroke="#979797" stroke-width="1" stroke-linejoin="square" fill="#F9B928" fill-rule="evenodd" cx="118.5" cy="304" rx="101" ry="90.5"></ellipse>
        </g>
        <g id="Oval">
            <use fill="black" fill-opacity="1" filter="url(#filter-10)" xlink:href="#path-9"></use>
            <ellipse stroke="#979797" stroke-width="1" stroke-linejoin="square" fill="#F9B928" fill-rule="evenodd" cx="489" cy="324" rx="85.5" ry="76.5"></ellipse>
        </g>
        <g id="Oval">
            <use fill="black" fill-opacity="1" filter="url(#filter-12)" xlink:href="#path-11"></use>
            <ellipse stroke="#979797" stroke-width="1" stroke-linejoin="square" fill="#F9B928" fill-rule="evenodd" cx="701" cy="324" rx="85.5" ry="76.5"></ellipse>
        </g>
        <text id="Auth-Service" font-family="Montserrat-SemiBold, Montserrat" font-size="26" font-weight="500" fill="#151414">
            <tspan x="65.6974013" y="276.05303">Primary</tspan>
            <tspan x="55.3104013" y="308.05303">Database</tspan>
            <tspan x="61.1864013" y="340.05303">Instance</tspan>
        </text>
        <text id="Replica-1" font-family="Montserrat-SemiBold, Montserrat" font-size="26" font-weight="500" fill="#151414">
            <tspan x="430.994" y="333">Replica 1</tspan>
        </text>
        <text id="Replica-2" font-family="Montserrat-SemiBold, Montserrat" font-size="26" font-weight="500" fill="#151414">
            <tspan x="640.381" y="333">Replica 2</tspan>
        </text>
        <text id="Read" font-family="Montserrat-SemiBold, Montserrat" font-size="20" font-weight="500" fill="#060606">
            <tspan x="346.13" y="170">Read</tspan>
        </text>
        <text id="Read" font-family="Montserrat-SemiBold, Montserrat" font-size="20" font-weight="500" fill="#060606">
            <tspan x="512.13" y="163">Read</tspan>
        </text>
        <text id="Read" font-family="Montserrat-SemiBold, Montserrat" font-size="20" font-weight="500" fill="#060606">
            <tspan x="715.13" y="184">Read</tspan>
        </text>
        <text id="Read" font-family="Montserrat-SemiBold, Montserrat" font-size="20" font-weight="500" fill="#060606">
            <tspan x="105.13" y="179">Read</tspan>
        </text>
        <path id="Line-2" d="M406.668076,229.322613 L407.272731,230.695344 L414.672731,247.495344 L415.747675,249.935756 L413.103896,249.587126 L394.903896,247.187126 L393.41677,246.991021 L393.808979,244.01677 L395.296104,244.212874 L407.817,245.863 L407.6,245.7 L406.4,244.8 L408.2,242.4 L409.4,243.3 L409.619,243.464 L404.527269,231.904656 L403.922613,230.531924 L406.668076,229.322613 Z M400.2,236.4 L401.4,237.3 L401.501942,237.376457 L405.4,240.3 L406.6,241.2 L404.8,243.6 L403.6,242.7 L399.701942,239.776457 L399.6,239.7 L398.4,238.8 L400.2,236.4 Z M392.2,230.4 L397.4,234.3 L398.6,235.2 L396.8,237.6 L391.6,233.7 L390.4,232.8 L392.2,230.4 Z M384.2,224.4 L389.4,228.3 L390.6,229.2 L388.8,231.6 L383.6,227.7 L382.4,226.8 L384.2,224.4 Z M376.2,218.4 L381.4,222.3 L382.6,223.2 L380.8,225.6 L375.6,221.7 L374.4,220.8 L376.2,218.4 Z M368.2,212.4 L373.4,216.3 L374.6,217.2 L372.8,219.6 L367.6,215.7 L366.4,214.8 L368.2,212.4 Z M360.2,206.4 L365.4,210.3 L366.6,211.2 L364.8,213.6 L359.6,209.7 L358.4,208.8 L360.2,206.4 Z M352.2,200.4 L357.4,204.3 L358.6,205.2 L356.8,207.6 L351.6,203.7 L350.4,202.8 L352.2,200.4 Z M344.2,194.4 L349.4,198.3 L350.6,199.2 L348.8,201.6 L343.6,197.7 L342.4,196.8 L344.2,194.4 Z M336.2,188.4 L341.4,192.3 L342.6,193.2 L340.8,195.6 L335.6,191.7 L334.4,190.8 L336.2,188.4 Z M328.2,182.4 L333.4,186.3 L334.6,187.2 L332.8,189.6 L327.6,185.7 L326.4,184.8 L328.2,182.4 Z M320.2,176.4 L325.4,180.3 L326.6,181.2 L324.8,183.6 L319.6,179.7 L318.4,178.8 L320.2,176.4 Z M312.2,170.4 L317.4,174.3 L318.6,175.2 L316.8,177.6 L311.6,173.7 L310.4,172.8 L312.2,170.4 Z M304.2,164.4 L309.4,168.3 L310.6,169.2 L308.8,171.6 L303.6,167.7 L302.4,166.8 L304.2,164.4 Z M296.2,158.4 L301.4,162.3 L302.6,163.2 L300.8,165.6 L295.6,161.7 L294.4,160.8 L296.2,158.4 Z M288.2,152.4 L293.4,156.3 L294.6,157.2 L292.8,159.6 L287.6,155.7 L286.4,154.8 L288.2,152.4 Z M280.2,146.4 L285.4,150.3 L286.6,151.2 L284.8,153.6 L279.6,149.7 L278.4,148.8 L280.2,146.4 Z M272.2,140.4 L277.4,144.3 L278.6,145.2 L276.8,147.6 L271.6,143.7 L270.4,142.8 L272.2,140.4 Z M264.2,134.4 L269.4,138.3 L270.6,139.2 L268.8,141.6 L263.6,137.7 L262.4,136.8 L264.2,134.4 Z M256.2,128.4 L257.4,129.3 L262.6,133.2 L260.8,135.6 L255.6,131.7 L254.4,130.8 L256.2,128.4 Z" fill="#000000" fill-rule="nonzero"></path>
    </g>
</svg>