<?xml version="1.0" encoding="UTF-8"?>
<svg width="730px" height="567px" viewBox="0 0 730 567" version="1.1" xmlns="http://www.w3.org/2000/svg" xmlns:xlink="http://www.w3.org/1999/xlink">
    <title>Artboard</title>
    <defs>
        <rect id="path-1" x="27" y="149" width="233" height="76"></rect>
        <filter x="-3.0%" y="-6.6%" width="106.0%" height="118.4%" filterUnits="objectBoundingBox" id="filter-2">
            <feOffset dx="0" dy="2" in="SourceAlpha" result="shadowOffsetOuter1"></feOffset>
            <feGaussianBlur stdDeviation="2" in="shadowOffsetOuter1" result="shadowBlurOuter1"></feGaussianBlur>
            <feComposite in="shadowBlurOuter1" in2="SourceAlpha" operator="out" result="shadowBlurOuter1"></feComposite>
            <feColorMatrix values="0 0 0 0 0   0 0 0 0 0   0 0 0 0 0  0 0 0 0.5 0" type="matrix" in="shadowBlurOuter1"></feColorMatrix>
        </filter>
        <ellipse id="path-3" cx="148.5" cy="457" rx="101.5" ry="91"></ellipse>
        <filter x="-3.4%" y="-2.7%" width="106.9%" height="107.7%" filterUnits="objectBoundingBox" id="filter-4">
            <feOffset dx="0" dy="2" in="SourceAlpha" result="shadowOffsetOuter1"></feOffset>
            <feGaussianBlur stdDeviation="2" in="shadowOffsetOuter1" result="shadowBlurOuter1"></feGaussianBlur>
            <feComposite in="shadowBlurOuter1" in2="SourceAlpha" operator="out" result="shadowBlurOuter1"></feComposite>
            <feColorMatrix values="0 0 0 0 0   0 0 0 0 0   0 0 0 0 0  0 0 0 0.5 0" type="matrix" in="shadowBlurOuter1"></feColorMatrix>
        </filter>
        <ellipse id="path-5" cx="604.5" cy="339" rx="112.5" ry="77"></ellipse>
        <filter x="-3.1%" y="-3.2%" width="106.2%" height="109.1%" filterUnits="objectBoundingBox" id="filter-6">
            <feOffset dx="0" dy="2" in="SourceAlpha" result="shadowOffsetOuter1"></feOffset>
            <feGaussianBlur stdDeviation="2" in="shadowOffsetOuter1" result="shadowBlurOuter1"></feGaussianBlur>
            <feComposite in="shadowBlurOuter1" in2="SourceAlpha" operator="out" result="shadowBlurOuter1"></feComposite>
            <feColorMatrix values="0 0 0 0 0   0 0 0 0 0   0 0 0 0 0  0 0 0 0.5 0" type="matrix" in="shadowBlurOuter1"></feColorMatrix>
        </filter>
    </defs>
    <g id="Artboard" stroke="none" stroke-width="1" fill="none" fill-rule="evenodd">
        <path id="Line-3" d="M151.928029,330.457245 L154.542755,331.928029 L153.807363,333.235392 L144.807363,349.235392 L143.5,351.559593 L142.192637,349.235392 L133.192637,333.235392 L132.457245,331.928029 L135.071971,330.457245 L135.807363,331.764608 L142,342.773 L142,335 L145,335 L145,342.773 L151.192637,331.764608 L151.928029,330.457245 Z M144.872,343 L142.127,343 L143.5,345.44 L144.872,343 Z M145,325 L145,333 L142,333 L142,325 L145,325 Z M145,315 L145,323 L142,323 L142,315 L145,315 Z M145,305 L145,313 L142,313 L142,305 L145,305 Z M145,295 L145,303 L142,303 L142,295 L145,295 Z M145,285 L145,293 L142,293 L142,285 L145,285 Z M145,275 L145,283 L142,283 L142,275 L145,275 Z M145,265 L145,273 L142,273 L142,265 L145,265 Z M145,255 L145,263 L142,263 L142,255 L145,255 Z M145,245 L145,253 L142,253 L142,245 L145,245 Z" fill="#000000" fill-rule="nonzero"></path>
        <path id="Line-5" d="M151.608056,115.302715 L154.249813,116.724377 L153.538982,118.045256 L144.839567,134.210656 L143.575867,136.558884 L142.225297,134.259521 L132.927855,118.43051 L132.168159,117.137119 L134.754943,115.617727 L135.514639,116.911119 L141.912,127.802 L141.869094,125.510568 L141.841062,124.01083 L144.840538,123.954765 L144.86857,125.454503 L144.911,127.746 L150.897225,116.623594 L151.608056,115.302715 Z M144.653655,113.956512 L144.681687,115.45625 L144.720052,117.508789 L144.775129,120.455377 L144.803161,121.955115 L141.803685,122.01118 L141.775653,120.511441 L141.720576,117.564854 L141.682211,115.512315 L141.654179,114.012577 L144.653655,113.956512 Z M144.466772,103.958258 L144.494804,105.457996 L144.588246,110.457123 L144.616278,111.956861 L141.616802,112.012926 L141.58877,110.513188 L141.495328,105.514061 L141.467295,104.014323 L144.466772,103.958258 Z M144.279888,93.9600045 L144.307921,95.4597426 L144.401362,100.458869 L144.429395,101.958607 L141.429919,102.014672 L141.401886,100.514934 L141.308445,95.5158075 L141.280412,94.0160695 L144.279888,93.9600045 Z M144.093005,83.961751 L144.121038,85.461489 L144.214479,90.4606158 L144.242512,91.9603538 L141.243036,92.0164188 L141.215003,90.5166808 L141.121561,85.517554 L141.093529,84.0178159 L144.093005,83.961751 Z M143.906122,73.9634974 L143.934154,75.4632354 L144.027596,80.4623622 L144.055628,81.9621002 L141.056152,82.0181652 L141.02812,80.5184272 L140.934678,75.5193004 L140.906646,74.0195624 L143.906122,73.9634974 Z M143.719239,63.9652438 L143.747271,65.4649818 L143.840713,70.4641086 L143.868745,71.9638467 L140.869269,72.0199116 L140.841237,70.5201736 L140.747795,65.5210468 L140.719762,64.0213088 L143.719239,63.9652438 Z M143.532355,53.9669902 L143.560388,55.4667283 L143.653829,60.465855 L143.681862,61.9655931 L140.682386,62.0216581 L140.654353,60.52192 L140.560912,55.5227932 L140.532879,54.0230552 L143.532355,53.9669902 Z M143.345472,43.9687366 L143.373505,45.4684747 L143.466946,50.4676015 L143.494979,51.9673395 L140.495503,52.0234045 L140.46747,50.5236664 L140.374028,45.5245396 L140.345996,44.0248016 L143.345472,43.9687366 Z M143.158589,33.9704831 L143.186621,35.4702211 L143.280063,40.4693479 L143.308095,41.9690859 L140.308619,42.0251509 L140.280587,40.5254129 L140.187145,35.5262861 L140.159113,34.026548 L143.158589,33.9704831 Z M142.971706,23.9722295 L142.999738,25.4719675 L143.09318,30.4710943 L143.121212,31.9708323 L140.121736,32.0268973 L140.093704,30.5271593 L140.000262,25.5280325 L139.972229,24.0282944 L142.971706,23.9722295 Z" fill="#000000" fill-rule="nonzero"></path>
        <g id="Rectangle-2">
            <use fill="black" fill-opacity="1" filter="url(#filter-2)" xlink:href="#path-1"></use>
            <rect stroke="#979797" stroke-width="1" stroke-linejoin="square" fill="#147894" fill-rule="evenodd" x="27.5" y="149.5" width="232" height="75"></rect>
        </g>
        <text id="Auth-Service" font-family="Montserrat-SemiBold, Montserrat" font-size="26" font-weight="500" fill="#FBFBFB">
            <tspan x="41.4994013" y="193.05303">Web End-point</tspan>
        </text>
        <g id="Oval">
            <use fill="black" fill-opacity="1" filter="url(#filter-4)" xlink:href="#path-3"></use>
            <ellipse stroke="#979797" stroke-width="1" stroke-linejoin="square" fill="#F9B928" fill-rule="evenodd" cx="148.5" cy="457" rx="101" ry="90.5"></ellipse>
        </g>
        <g id="Oval">
            <use fill="black" fill-opacity="1" filter="url(#filter-6)" xlink:href="#path-5"></use>
            <ellipse stroke="#979797" stroke-width="1" stroke-linejoin="square" fill="#F9B928" fill-rule="evenodd" cx="604.5" cy="339" rx="112" ry="76.5"></ellipse>
        </g>
        <text id="Auth-Service" font-family="Montserrat-SemiBold, Montserrat" font-size="26" font-weight="500" fill="#151414">
            <tspan x="85.3104013" y="467.05303">Database</tspan>
        </text>
        <text id="User-Session-Cache" font-family="Montserrat-SemiBold, Montserrat" font-size="26" font-weight="500" fill="#151414">
            <tspan x="520.214" y="339">User Session</tspan>
            <tspan x="563.114" y="371">Cache</tspan>
        </text>
        <text id="Fast" font-family="Montserrat-SemiBold, Montserrat" font-size="20" font-weight="500" fill="#0BCF31">
            <tspan x="329.84" y="219">Fast</tspan>
        </text>
        <text id="HTTP" font-family="Montserrat-SemiBold, Montserrat" font-size="26" font-weight="500" fill="#060606">
            <tspan x="164.75" y="79">HTTP</tspan>
        </text>
        <text id="Slow" font-family="Montserrat-SemiBold, Montserrat" font-size="20" font-weight="500" fill="#B61010">
            <tspan x="158.83" y="307">Slow</tspan>
        </text>
        <path id="Line-2" d="M468.003215,295.405165 L468.807253,296.671468 L478.647369,312.168955 L480.07677,314.420161 L477.410621,314.472702 L459.056625,314.834403 L457.556916,314.863958 L457.497806,311.86454 L458.997515,311.834985 L471.625,311.585 L470.814372,311.150198 L469.492773,310.440708 L470.911753,307.79751 L472.233352,308.507 L473.044,308.942 L466.274647,298.279544 L465.470609,297.013241 L468.003215,295.405165 Z M462.101092,303.067577 L463.422691,303.777067 L464.040794,304.108891 L467.828022,306.142034 L469.149621,306.851524 L467.730641,309.494722 L466.409042,308.785232 L462.621814,306.752089 L462.003711,306.420265 L460.682112,305.710775 L462.101092,303.067577 Z M453.290432,298.337644 L454.612031,299.047134 L459.017361,301.4121 L460.33896,302.12159 L458.91998,304.764788 L457.598381,304.055298 L453.193051,301.690332 L451.871452,300.980842 L453.290432,298.337644 Z M444.479772,293.60771 L445.801371,294.3172 L450.206701,296.682167 L451.5283,297.391657 L450.10932,300.034855 L448.787721,299.325365 L444.382391,296.960398 L443.060792,296.250908 L444.479772,293.60771 Z M435.669112,288.877777 L436.990711,289.587267 L441.396041,291.952234 L442.71764,292.661724 L441.29866,295.304922 L439.977061,294.595432 L435.571731,292.230465 L434.250132,291.520975 L435.669112,288.877777 Z M426.858452,284.147844 L428.180051,284.857334 L432.585381,287.2223 L433.90698,287.93179 L432.488,290.574989 L431.166401,289.865499 L426.761071,287.500532 L425.439472,286.791042 L426.858452,284.147844 Z M418.047792,279.417911 L419.369391,280.127401 L423.774721,282.492367 L425.09632,283.201857 L423.67734,285.845055 L422.355741,285.135565 L417.950411,282.770599 L416.628812,282.061109 L418.047792,279.417911 Z M409.237132,274.687977 L410.558731,275.397467 L414.964061,277.762434 L416.28566,278.471924 L414.86668,281.115122 L413.545081,280.405632 L409.139751,278.040665 L407.818152,277.331175 L409.237132,274.687977 Z M400.426472,269.958044 L401.748071,270.667534 L406.153401,273.032501 L407.475,273.741991 L406.05602,276.385189 L404.734421,275.675699 L400.329091,273.310732 L399.007492,272.601242 L400.426472,269.958044 Z M391.615812,265.228111 L392.937411,265.937601 L397.342741,268.302567 L398.66434,269.012057 L397.24536,271.655255 L395.923761,270.945765 L391.518431,268.580799 L390.196832,267.871309 L391.615812,265.228111 Z M382.805152,260.498177 L384.126751,261.207667 L388.532081,263.572634 L389.85368,264.282124 L388.4347,266.925322 L387.113101,266.215832 L382.707771,263.850865 L381.386172,263.141375 L382.805152,260.498177 Z M373.994492,255.768244 L375.316091,256.477734 L379.721421,258.842701 L381.04302,259.552191 L379.62404,262.195389 L378.302441,261.485899 L373.897111,259.120932 L372.575512,258.411442 L373.994492,255.768244 Z M365.183832,251.038311 L366.505431,251.747801 L370.910761,254.112767 L372.23236,254.822257 L370.81338,257.465455 L369.491781,256.755965 L365.086451,254.390999 L363.764852,253.681509 L365.183832,251.038311 Z M356.373172,246.308377 L357.694771,247.017867 L362.100101,249.382834 L363.4217,250.092324 L362.00272,252.735522 L360.681121,252.026032 L356.275791,249.661065 L354.954192,248.951575 L356.373172,246.308377 Z M347.562512,241.578444 L348.884111,242.287934 L353.289441,244.652901 L354.61104,245.362391 L353.19206,248.005589 L351.870461,247.296099 L347.465131,244.931132 L346.143532,244.221642 L347.562512,241.578444 Z M338.751851,236.848511 L340.07345,237.558001 L344.47878,239.922967 L345.800379,240.632457 L344.381399,243.275655 L343.0598,242.566165 L338.65447,240.201199 L337.332871,239.491709 L338.751851,236.848511 Z M329.941191,232.118578 L331.26279,232.828068 L335.66812,235.193034 L336.989719,235.902524 L335.570739,238.545722 L334.24914,237.836232 L329.84381,235.471266 L328.522211,234.761776 L329.941191,232.118578 Z M321.130531,227.388644 L322.45213,228.098134 L326.85746,230.463101 L328.179059,231.172591 L326.760079,233.815789 L325.43848,233.106299 L321.03315,230.741332 L319.711551,230.031842 L321.130531,227.388644 Z M312.319871,222.658711 L313.64147,223.368201 L318.0468,225.733168 L319.368399,226.442658 L317.949419,229.085856 L316.62782,228.376366 L312.22249,226.011399 L310.900891,225.301909 L312.319871,222.658711 Z M303.509211,217.928778 L304.83081,218.638268 L309.23614,221.003234 L310.557739,221.712724 L309.138759,224.355922 L307.81716,223.646432 L303.41183,221.281466 L302.090231,220.571976 L303.509211,217.928778 Z M294.698551,213.198844 L296.02015,213.908334 L300.42548,216.273301 L301.747079,216.982791 L300.328099,219.625989 L299.0065,218.916499 L294.60117,216.551532 L293.279571,215.842042 L294.698551,213.198844 Z M285.887891,208.468911 L287.20949,209.178401 L291.61482,211.543368 L292.936419,212.252858 L291.517439,214.896056 L290.19584,214.186566 L285.79051,211.821599 L284.468911,211.112109 L285.887891,208.468911 Z" fill="#000000" fill-rule="nonzero"></path>
    </g>
</svg>