<?xml version="1.0" encoding="UTF-8" standalone="no"?><svg xmlns="http://www.w3.org/2000/svg" xmlns:xlink="http://www.w3.org/1999/xlink" contentScriptType="application/ecmascript" contentStyleType="text/css" height="852px" preserveAspectRatio="none" style="width:762px;height:852px;" version="1.1" viewBox="0 0 762 852" width="762px" zoomAndPan="magnify"><defs/><g><line style="stroke: #CDCDCD; stroke-width: 1.0; stroke-dasharray: 5.0,5.0;" x1="37" x2="37" y1="44.4883" y2="802.0098"/><line style="stroke: #CDCDCD; stroke-width: 1.0; stroke-dasharray: 5.0,5.0;" x1="288" x2="288" y1="44.4883" y2="802.0098"/><line style="stroke: #CDCDCD; stroke-width: 1.0; stroke-dasharray: 5.0,5.0;" x1="576" x2="576" y1="44.4883" y2="802.0098"/><line style="stroke: #CDCDCD; stroke-width: 1.0; stroke-dasharray: 5.0,5.0;" x1="694" x2="694" y1="44.4883" y2="802.0098"/><rect fill="#D8D8D8" height="40.4883" rx="4" ry="4" style="stroke: #979797; stroke-width: 1.0;" width="59" x="8" y="3"/><text fill="#000000" font-family="sans-serif" font-size="14" lengthAdjust="spacingAndGlyphs" textLength="35" x="20" y="28.5352">Roku</text><rect fill="#D8D8D8" height="40.4883" rx="4" ry="4" style="stroke: #979797; stroke-width: 1.0;" width="59" x="8" y="801.0098"/><text fill="#000000" font-family="sans-serif" font-size="14" lengthAdjust="spacingAndGlyphs" textLength="35" x="20" y="826.5449">Roku</text><rect fill="#D8D8D8" height="40.4883" rx="4" ry="4" style="stroke: #979797; stroke-width: 1.0;" width="189" x="194" y="3"/><text fill="#000000" font-family="sans-serif" font-size="14" lengthAdjust="spacingAndGlyphs" textLength="165" x="206" y="28.5352">Browser on Smartphone</text><rect fill="#D8D8D8" height="40.4883" rx="4" ry="4" style="stroke: #979797; stroke-width: 1.0;" width="189" x="194" y="801.0098"/><text fill="#000000" font-family="sans-serif" font-size="14" lengthAdjust="spacingAndGlyphs" textLength="165" x="206" y="826.5449">Browser on Smartphone</text><rect fill="#D8D8D8" height="40.4883" rx="4" ry="4" style="stroke: #979797; stroke-width: 1.0;" width="103" x="525" y="3"/><text fill="#000000" font-family="sans-serif" font-size="14" lengthAdjust="spacingAndGlyphs" textLength="79" x="537" y="28.5352">FusionAuth</text><rect fill="#D8D8D8" height="40.4883" rx="4" ry="4" style="stroke: #979797; stroke-width: 1.0;" width="103" x="525" y="801.0098"/><text fill="#000000" font-family="sans-serif" font-size="14" lengthAdjust="spacingAndGlyphs" textLength="79" x="537" y="826.5449">FusionAuth</text><rect fill="#D8D8D8" height="40.4883" rx="4" ry="4" style="stroke: #979797; stroke-width: 1.0;" width="113" x="638" y="3"/><text fill="#000000" font-family="sans-serif" font-size="14" lengthAdjust="spacingAndGlyphs" textLength="89" x="650" y="28.5352">App Backend</text><rect fill="#D8D8D8" height="40.4883" rx="4" ry="4" style="stroke: #979797; stroke-width: 1.0;" width="113" x="638" y="801.0098"/><text fill="#000000" font-family="sans-serif" font-size="14" lengthAdjust="spacingAndGlyphs" textLength="89" x="650" y="826.5449">App Backend</text><line style="stroke: #56666F; stroke-width: 1.0;" x1="37.5" x2="79.5" y1="85.7988" y2="85.7988"/><line style="stroke: #56666F; stroke-width: 1.0;" x1="79.5" x2="79.5" y1="85.7988" y2="98.7988"/><line style="stroke: #56666F; stroke-width: 1.0;" x1="38.5" x2="79.5" y1="98.7988" y2="98.7988"/><polygon fill="#56666F" points="48.5,94.7988,38.5,98.7988,48.5,102.7988,44.5,98.7988" style="stroke: #56666F; stroke-width: 1.0;"/><text fill="#000000" font-family="sans-serif" font-size="13" font-weight="bold" lengthAdjust="spacingAndGlyphs" textLength="9" x="49.5" y="76.0566">1</text><text fill="#000000" font-family="sans-serif" font-size="13" lengthAdjust="spacingAndGlyphs" textLength="204" x="72.5" y="76.0566">Open Nerd Stuff on Demand app</text><polygon fill="#56666F" points="564.5,134.1094,574.5,138.1094,564.5,142.1094,568.5,138.1094" style="stroke: #56666F; stroke-width: 1.0;"/><line style="stroke: #56666F; stroke-width: 1.0;" x1="37.5" x2="570.5" y1="138.1094" y2="138.1094"/><text fill="#000000" font-family="sans-serif" font-size="13" font-weight="bold" lengthAdjust="spacingAndGlyphs" textLength="9" x="49.5" y="128.3672">2</text><text fill="#000000" font-family="sans-serif" font-size="13" lengthAdjust="spacingAndGlyphs" textLength="192" x="72.5" y="128.3672">GET /oauth2/device_authorize</text><polygon fill="#56666F" points="48.5,173.4199,38.5,177.4199,48.5,181.4199,44.5,177.4199" style="stroke: #56666F; stroke-width: 1.0;"/><line style="stroke: #56666F; stroke-width: 1.0;" x1="42.5" x2="575.5" y1="177.4199" y2="177.4199"/><text fill="#000000" font-family="sans-serif" font-size="13" font-weight="bold" lengthAdjust="spacingAndGlyphs" textLength="9" x="59.5" y="167.6777">3</text><text fill="#000000" font-family="sans-serif" font-size="13" lengthAdjust="spacingAndGlyphs" textLength="151" x="82.5" y="167.6777">URL and code to display</text><line style="stroke: #56666F; stroke-width: 1.0;" x1="37.5" x2="79.5" y1="216.7305" y2="216.7305"/><line style="stroke: #56666F; stroke-width: 1.0;" x1="79.5" x2="79.5" y1="216.7305" y2="229.7305"/><line style="stroke: #56666F; stroke-width: 1.0;" x1="38.5" x2="79.5" y1="229.7305" y2="229.7305"/><polygon fill="#56666F" points="48.5,225.7305,38.5,229.7305,48.5,233.7305,44.5,229.7305" style="stroke: #56666F; stroke-width: 1.0;"/><text fill="#000000" font-family="sans-serif" font-size="13" font-weight="bold" lengthAdjust="spacingAndGlyphs" textLength="9" x="49.5" y="206.9883">4</text><text fill="#000000" font-family="sans-serif" font-size="13" lengthAdjust="spacingAndGlyphs" textLength="176" x="72.5" y="206.9883">Display URL and code on TV</text><polygon fill="#56666F" points="564.5,265.041,574.5,269.041,564.5,273.041,568.5,269.041" style="stroke: #56666F; stroke-width: 1.0;"/><line style="stroke: #56666F; stroke-width: 1.0; stroke-dasharray: 2.0,2.0;" x1="37.5" x2="570.5" y1="269.041" y2="269.041"/><text fill="#000000" font-family="sans-serif" font-size="13" font-weight="bold" lengthAdjust="spacingAndGlyphs" textLength="9" x="49.5" y="259.2988">5</text><text fill="#000000" font-family="sans-serif" font-size="13" lengthAdjust="spacingAndGlyphs" textLength="299" x="72.5" y="259.2988">GET /oauth2/token (polling every 2-5 seconds)</text><polygon fill="#56666F" points="48.5,304.3516,38.5,308.3516,48.5,312.3516,44.5,308.3516" style="stroke: #56666F; stroke-width: 1.0;"/><line style="stroke: #56666F; stroke-width: 1.0; stroke-dasharray: 2.0,2.0;" x1="42.5" x2="575.5" y1="308.3516" y2="308.3516"/><text fill="#000000" font-family="sans-serif" font-size="13" font-weight="bold" lengthAdjust="spacingAndGlyphs" textLength="9" x="59.5" y="298.6094">6</text><text fill="#000000" font-family="sans-serif" font-size="13" lengthAdjust="spacingAndGlyphs" textLength="126" x="82.5" y="298.6094">"Not completed yet"</text><polygon fill="#56666F" points="682.5,358.9727,692.5,362.9727,682.5,366.9727,686.5,362.9727" style="stroke: #56666F; stroke-width: 1.0;"/><line style="stroke: #56666F; stroke-width: 1.0;" x1="288.5" x2="688.5" y1="362.9727" y2="362.9727"/><text fill="#000000" font-family="sans-serif" font-size="13" font-weight="bold" lengthAdjust="spacingAndGlyphs" textLength="9" x="300.5" y="345.5752">7</text><text fill="#000000" font-family="sans-serif" font-size="13" lengthAdjust="spacingAndGlyphs" textLength="182" x="323.5" y="337.9199">GET https://nsod.tv/activate</text><text fill="#000000" font-family="sans-serif" font-size="13" lengthAdjust="spacingAndGlyphs" textLength="0" x="327.5" y="353.2305"/><polygon fill="#56666F" points="299.5,398.2832,289.5,402.2832,299.5,406.2832,295.5,402.2832" style="stroke: #56666F; stroke-width: 1.0;"/><line style="stroke: #56666F; stroke-width: 1.0;" x1="293.5" x2="693.5" y1="402.2832" y2="402.2832"/><text fill="#000000" font-family="sans-serif" font-size="13" font-weight="bold" lengthAdjust="spacingAndGlyphs" textLength="9" x="310.5" y="392.541">8</text><text fill="#000000" font-family="sans-serif" font-size="13" lengthAdjust="spacingAndGlyphs" textLength="195" x="333.5" y="392.541">302 redirect to /oauth2/device</text><polygon fill="#56666F" points="564.5,437.5938,574.5,441.5938,564.5,445.5938,568.5,441.5938" style="stroke: #56666F; stroke-width: 1.0;"/><line style="stroke: #56666F; stroke-width: 1.0;" x1="288.5" x2="570.5" y1="441.5938" y2="441.5938"/><text fill="#000000" font-family="sans-serif" font-size="13" font-weight="bold" lengthAdjust="spacingAndGlyphs" textLength="9" x="300.5" y="431.8516">9</text><text fill="#000000" font-family="sans-serif" font-size="13" lengthAdjust="spacingAndGlyphs" textLength="126" x="323.5" y="431.8516">GET /oauth2/device</text><polygon fill="#56666F" points="299.5,492.2148,289.5,496.2148,299.5,500.2148,295.5,496.2148" style="stroke: #56666F; stroke-width: 1.0;"/><line style="stroke: #56666F; stroke-width: 1.0;" x1="293.5" x2="575.5" y1="496.2148" y2="496.2148"/><text fill="#000000" font-family="sans-serif" font-size="13" font-weight="bold" lengthAdjust="spacingAndGlyphs" textLength="18" x="310.5" y="478.8174">10</text><text fill="#000000" font-family="sans-serif" font-size="13" lengthAdjust="spacingAndGlyphs" textLength="131" x="342.5" y="471.1621">HTML &amp; CSS for start</text><text fill="#000000" font-family="sans-serif" font-size="13" lengthAdjust="spacingAndGlyphs" textLength="146" x="342.5" y="486.4727">page that collects code</text><polygon fill="#56666F" points="564.5,531.5254,574.5,535.5254,564.5,539.5254,568.5,535.5254" style="stroke: #56666F; stroke-width: 1.0;"/><line style="stroke: #56666F; stroke-width: 1.0;" x1="288.5" x2="570.5" y1="535.5254" y2="535.5254"/><text fill="#000000" font-family="sans-serif" font-size="13" font-weight="bold" lengthAdjust="spacingAndGlyphs" textLength="18" x="300.5" y="525.7832">11</text><text fill="#000000" font-family="sans-serif" font-size="13" lengthAdjust="spacingAndGlyphs" textLength="181" x="332.5" y="525.7832">POST /oauth/device w/ code</text><polygon fill="#56666F" points="299.5,570.8359,289.5,574.8359,299.5,578.8359,295.5,574.8359" style="stroke: #56666F; stroke-width: 1.0;"/><line style="stroke: #56666F; stroke-width: 1.0;" x1="293.5" x2="575.5" y1="574.8359" y2="574.8359"/><text fill="#000000" font-family="sans-serif" font-size="13" font-weight="bold" lengthAdjust="spacingAndGlyphs" textLength="18" x="310.5" y="565.0938">12</text><text fill="#000000" font-family="sans-serif" font-size="13" lengthAdjust="spacingAndGlyphs" textLength="206" x="342.5" y="565.0938">302 redirect to /oauth/authorize</text><path d="M218,591.8359 L218,633.8359 A4,4 0 0 0 222,637.8359 L643,637.8359 A4,4 0 0 0 647,633.8359 L647,597.8359 L637,587.8359 L222,587.8359 A4,4 0 0 0 218,591.8359 " fill="#8B80A1" style="stroke: #FFFFFF; stroke-width: 1.0;"/><path d="M637,587.8359 L637,595.8359 A2,2 0 0 0 639,597.8359 L647,597.8359 L637,587.8359 " fill="#8B80A1" style="stroke: #FFFFFF; stroke-width: 1.0;"/><text fill="#FFFFFF" font-family="sans-serif" font-size="13" font-style="italic" lengthAdjust="spacingAndGlyphs" textLength="156" x="316.5" y="610.4043">User logs in via standard</text><text fill="#FFFFFF" font-family="sans-serif" font-size="13" font-style="italic" lengthAdjust="spacingAndGlyphs" textLength="223" x="316.5" y="625.7148">OAuth v2 Authorization Code Grant</text><polygon fill="#56666F" points="299.5,686.0781,289.5,690.0781,299.5,694.0781,295.5,690.0781" style="stroke: #56666F; stroke-width: 1.0;"/><line style="stroke: #56666F; stroke-width: 1.0;" x1="293.5" x2="575.5" y1="690.0781" y2="690.0781"/><text fill="#000000" font-family="sans-serif" font-size="13" font-weight="bold" lengthAdjust="spacingAndGlyphs" textLength="18" x="310.5" y="672.6807">13</text><text fill="#000000" font-family="sans-serif" font-size="13" lengthAdjust="spacingAndGlyphs" textLength="187" x="342.5" y="665.0254">302 redirect to /oauth/device</text><text fill="#000000" font-family="sans-serif" font-size="13" lengthAdjust="spacingAndGlyphs" textLength="27" x="342.5" y="680.3359">with</text><text fill="#000000" font-family="sans-serif" font-size="13" font-style="italic" lengthAdjust="spacingAndGlyphs" textLength="122" x="373.5" y="680.3359">activationComplete</text><text fill="#000000" font-family="sans-serif" font-size="13" lengthAdjust="spacingAndGlyphs" textLength="65" x="499.5" y="680.3359">set to true</text><polygon fill="#56666F" points="564.5,725.3887,574.5,729.3887,564.5,733.3887,568.5,729.3887" style="stroke: #56666F; stroke-width: 1.0;"/><line style="stroke: #56666F; stroke-width: 1.0; stroke-dasharray: 2.0,2.0;" x1="37.5" x2="570.5" y1="729.3887" y2="729.3887"/><text fill="#000000" font-family="sans-serif" font-size="13" font-weight="bold" lengthAdjust="spacingAndGlyphs" textLength="18" x="49.5" y="719.6465">14</text><text fill="#000000" font-family="sans-serif" font-size="13" lengthAdjust="spacingAndGlyphs" textLength="299" x="81.5" y="719.6465">GET /oauth2/token (polling every 2-5 seconds)</text><polygon fill="#56666F" points="48.5,780.0098,38.5,784.0098,48.5,788.0098,44.5,784.0098" style="stroke: #56666F; stroke-width: 1.0;"/><line style="stroke: #56666F; stroke-width: 1.0; stroke-dasharray: 2.0,2.0;" x1="42.5" x2="575.5" y1="784.0098" y2="784.0098"/><text fill="#000000" font-family="sans-serif" font-size="13" font-weight="bold" lengthAdjust="spacingAndGlyphs" textLength="18" x="59.5" y="766.6123">15</text><text fill="#000000" font-family="sans-serif" font-size="13" lengthAdjust="spacingAndGlyphs" textLength="54" x="91.5" y="758.957">Success!</text><text fill="#000000" font-family="sans-serif" font-size="13" lengthAdjust="spacingAndGlyphs" textLength="17" x="91.5" y="774.2676">An</text><text fill="#000000" font-family="sans-serif" font-size="13" font-style="italic" lengthAdjust="spacingAndGlyphs" textLength="85" x="112.5" y="774.2676">access_token</text><text fill="#000000" font-family="sans-serif" font-size="13" lengthAdjust="spacingAndGlyphs" textLength="23" x="201.5" y="774.2676">and</text><text fill="#000000" font-family="sans-serif" font-size="13" font-style="italic" lengthAdjust="spacingAndGlyphs" textLength="87" x="228.5" y="774.2676">refresh_token</text><text fill="#000000" font-family="sans-serif" font-size="13" lengthAdjust="spacingAndGlyphs" textLength="76" x="319.5" y="774.2676">are returned</text></g></svg>